<svg width="657" height="436" viewBox="0 0 657 436" fill="none" xmlns="http://www.w3.org/2000/svg">
<rect width="657" height="436" fill="#220B04"/>
<path d="M257.406 219C257.406 219.053 257.393 220.293 257.366 222.72C257.34 224 257.313 224.92 257.286 225.48C257.286 226.04 257.286 226.307 257.286 226.28C250.246 225.96 244.086 225.867 238.806 226L235.446 226.08C234.966 226.08 234.726 225.973 234.726 225.76C234.726 225.6 234.78 225.507 234.886 225.48C235.02 225.453 235.433 225.413 236.126 225.36C237.38 225.28 238.06 224.92 238.166 224.28C238.22 223.933 238.246 223.547 238.246 223.12V202.84C238.246 201.24 238.233 200.36 238.206 200.2C238.18 199.773 238.046 199.48 237.806 199.32C237.566 199.16 237.073 199.08 236.326 199.08C235.5 199.08 235.086 198.96 235.086 198.72C235.086 198.453 235.446 198.32 236.166 198.32C236.913 198.32 237.94 198.307 239.246 198.28C244.153 198.173 248.166 198.147 251.286 198.2L254.006 198.24C254.593 198.24 255.313 198.187 256.166 198.08L256.526 202.44C256.66 203.827 256.726 204.68 256.726 205C256.726 205.267 256.593 205.4 256.326 205.4C256.06 205.4 255.886 205.053 255.806 204.36C255.566 202.52 254.82 201.187 253.566 200.36C252.34 199.507 250.513 199.08 248.086 199.08C247.34 199.08 246.06 199.12 244.246 199.2V211C247.18 211.027 249.02 210.827 249.766 210.4C250.54 209.947 251.06 208.8 251.326 206.96C251.46 205.973 251.66 205.48 251.926 205.48C252.166 205.48 252.286 205.72 252.286 206.2C252.286 206.68 252.246 207.667 252.166 209.16C252.14 209.667 252.126 210.347 252.126 211.2C252.126 213.493 252.153 215.227 252.206 216.4C252.233 216.56 252.246 216.76 252.246 217C252.246 217.32 252.126 217.48 251.886 217.48C251.7 217.48 251.58 217.427 251.526 217.32C251.473 217.187 251.393 216.747 251.286 216C251.02 214.107 250.646 212.933 250.166 212.48C249.713 212 248.646 211.76 246.966 211.76H244.246V225.24L246.806 225.2C249.74 225.147 251.526 225.08 252.166 225C252.966 224.893 253.74 224.6 254.486 224.12C255.153 223.587 255.606 223.013 255.846 222.4C256.113 221.787 256.393 220.653 256.686 219C256.766 218.6 256.9 218.4 257.086 218.4C257.3 218.4 257.406 218.6 257.406 219ZM288.635 219.24C288.635 219.747 288.622 220.173 288.595 220.52C288.489 221.693 288.449 222.64 288.475 223.36L288.515 226.2C285.102 226.067 278.929 226 269.995 226H268.315C267.142 226 266.555 225.893 266.555 225.68C266.555 225.467 266.742 225.36 267.115 225.36C268.449 225.333 269.302 225.147 269.675 224.8C269.915 224.587 270.035 223.947 270.035 222.88L269.995 201.2C269.995 200.293 269.915 199.733 269.755 199.52C269.435 199.12 268.942 198.933 268.275 198.96L267.275 199C266.982 199 266.835 198.893 266.835 198.68C266.835 198.467 267.022 198.36 267.395 198.36C267.609 198.36 267.822 198.373 268.035 198.4H278.195C278.329 198.373 278.475 198.36 278.635 198.36C278.902 198.36 279.035 198.467 279.035 198.68C279.035 198.92 278.689 199.04 277.995 199.04C277.009 199.04 276.422 199.16 276.235 199.4C276.075 199.64 275.995 200.693 275.995 202.56V212.08C275.995 214.027 276.049 218.387 276.155 225.16C276.662 225.187 277.235 225.2 277.875 225.2C280.675 225.2 282.609 225.093 283.675 224.88C285.355 224.533 286.502 223.68 287.115 222.32C287.435 221.627 287.729 220.52 287.995 219C288.075 218.573 288.195 218.36 288.355 218.36C288.542 218.36 288.635 218.653 288.635 219.24ZM324.334 212C324.334 215.04 323.64 217.667 322.254 219.88C320.814 222.2 318.72 223.893 315.974 224.96C314.107 225.68 311.32 226.04 307.614 226.04C307.56 226.04 307.267 226.027 306.734 226C306.2 225.973 305.427 225.96 304.414 225.96H302.974C302.92 225.96 302.054 225.973 300.374 226L297.854 226.04C297.454 226.04 297.254 225.933 297.254 225.72C297.254 225.453 297.627 225.333 298.374 225.36C299.52 225.387 300.214 225.187 300.454 224.76C300.56 224.573 300.614 223.76 300.614 222.32V201.96C300.614 200.787 300.534 200.067 300.374 199.8C300.107 199.32 299.427 199.093 298.334 199.12C297.747 199.147 297.454 199.013 297.454 198.72C297.454 198.48 297.64 198.36 298.014 198.36H298.734C300.334 198.36 301.88 198.373 303.374 198.4C305.507 198.427 307.16 198.44 308.334 198.44C313.187 198.44 316.907 199.44 319.494 201.44C322.72 203.947 324.334 207.467 324.334 212ZM317.414 212C317.414 207.6 316.76 204.387 315.454 202.36C314.147 200.307 312.094 199.28 309.294 199.28C308.28 199.28 307.614 199.387 307.294 199.6C306.867 199.867 306.654 200.493 306.654 201.48V221.96C306.654 223.72 306.76 224.693 306.974 224.88C307.294 225.173 308 225.32 309.094 225.32C314.64 225.32 317.414 220.88 317.414 212ZM362.646 226C362.646 226.16 362.526 226.24 362.286 226.24C362.1 226.24 361.926 226.227 361.766 226.2C360.833 226.04 358.22 225.96 353.926 225.96C353.526 225.96 352.913 225.973 352.086 226L350.846 226.04C350.02 226.067 349.606 225.96 349.606 225.72C349.606 225.507 349.94 225.387 350.606 225.36C351.193 225.333 351.7 225.227 352.126 225.04C352.58 224.827 352.806 224.587 352.806 224.32C352.833 224.16 352.86 223.72 352.886 223L352.926 221V211.72L344.686 211.76C344.206 211.76 343.74 211.747 343.286 211.72L343.366 224.08C343.393 224.773 343.926 225.187 344.966 225.32C345.793 225.427 346.273 225.507 346.406 225.56C346.54 225.587 346.606 225.667 346.606 225.8C346.606 225.96 346.473 226.04 346.206 226.04C345.86 226.04 344.94 226.013 343.446 225.96C341.953 225.907 341.326 225.88 341.566 225.88C341.406 225.88 340.58 225.92 339.086 226C337.62 226.053 336.22 226.08 334.886 226.08H334.486C334.006 226.08 333.766 225.96 333.766 225.72C333.766 225.507 333.953 225.4 334.326 225.4C335.58 225.4 336.446 225.24 336.926 224.92C337.14 224.787 337.246 224.08 337.246 222.8V200.72C337.246 199.867 337.02 199.36 336.566 199.2C336.113 199.013 335.38 198.92 334.366 198.92C334.02 198.92 333.846 198.813 333.846 198.6C333.846 198.467 333.993 198.387 334.286 198.36C334.18 198.36 335.18 198.373 337.286 198.4L342.246 198.44C343.26 198.44 344.273 198.413 345.286 198.36C345.74 198.333 346.006 198.32 346.086 198.32C346.46 198.32 346.646 198.453 346.646 198.72C346.646 198.907 346.566 199.027 346.406 199.08C346.273 199.107 345.806 199.133 345.006 199.16C344.233 199.187 343.753 199.36 343.566 199.68C343.38 199.973 343.286 200.52 343.286 201.32V210.76L344.246 210.8C346.913 210.907 349.806 210.88 352.926 210.72V201.8C352.926 199.987 352.246 199.08 350.886 199.08C349.98 199.08 349.526 198.947 349.526 198.68C349.526 198.44 349.7 198.32 350.046 198.32H350.446C350.873 198.32 351.62 198.347 352.686 198.4C353.78 198.427 354.966 198.44 356.246 198.44H359.286L362.246 198.32C362.513 198.32 362.646 198.4 362.646 198.56C362.646 198.747 362.153 198.88 361.166 198.96C360.18 199.04 359.566 199.253 359.326 199.6C359.086 199.92 358.966 200.747 358.966 202.08V221.76C358.966 223.493 359.18 224.547 359.606 224.92C360.06 225.267 360.82 225.467 361.886 225.52C362.393 225.547 362.646 225.707 362.646 226ZM395.869 198.72C395.869 198.933 395.416 199.053 394.509 199.08C393.389 199.107 392.709 199.293 392.469 199.64C392.389 199.747 392.336 199.973 392.309 200.32V217.24C392.309 223.533 389.296 226.68 383.269 226.68C380.176 226.68 377.776 225.733 376.069 223.84C374.789 222.427 374.149 219.92 374.149 216.32V200.96C374.149 200.107 374.016 199.587 373.749 199.4C373.482 199.213 372.642 199.067 371.229 198.96C370.936 198.933 370.789 198.827 370.789 198.64C370.789 198.4 371.029 198.28 371.509 198.28C371.509 198.28 371.616 198.28 371.829 198.28C372.069 198.307 372.269 198.32 372.429 198.32L374.909 198.36C377.256 198.387 378.989 198.387 380.109 198.36C381.602 198.333 382.189 198.32 381.869 198.32H382.709C383.162 198.32 383.389 198.453 383.389 198.72C383.389 198.96 382.976 199.08 382.149 199.08C380.976 199.08 380.349 199.293 380.269 199.72C380.216 200.013 380.189 200.293 380.189 200.56V215.52C380.189 217.68 380.229 219.053 380.309 219.64C380.496 221.373 380.989 222.627 381.789 223.4C382.776 224.36 384.069 224.84 385.669 224.84C387.482 224.84 388.816 224.253 389.669 223.08C390.709 221.667 391.229 219.133 391.229 215.48V202.28C391.229 202.04 391.242 201.733 391.269 201.36C391.269 200.987 391.269 200.76 391.269 200.68C391.269 199.987 391.069 199.533 390.669 199.32C390.402 199.16 389.882 199.08 389.109 199.08C388.149 199.053 387.669 198.893 387.669 198.6C387.669 198.387 387.856 198.28 388.229 198.28C388.629 198.28 389.216 198.307 389.989 198.36C390.762 198.387 391.349 198.4 391.749 198.4C391.776 198.4 392.002 198.387 392.429 198.36C392.882 198.36 393.296 198.36 393.669 198.36H394.629C395.456 198.36 395.869 198.48 395.869 198.72ZM422.43 218.12C422.43 220.547 421.563 222.56 419.83 224.16C418.123 225.733 415.937 226.52 413.27 226.52C411.643 226.52 409.403 225.973 406.55 224.88C406.337 224.8 406.15 224.76 405.99 224.76C405.537 224.76 405.19 225.24 404.95 226.2C404.87 226.493 404.763 226.64 404.63 226.64C404.417 226.64 404.31 226.453 404.31 226.08C404.31 225.733 404.377 225.12 404.51 224.24C404.617 223.52 404.67 222.68 404.67 221.72C404.67 220.947 404.657 220.333 404.63 219.88C404.577 218.973 404.55 218.44 404.55 218.28C404.55 217.853 404.683 217.64 404.95 217.64C405.217 217.64 405.457 218.213 405.67 219.36C406.043 221.333 406.883 222.867 408.19 223.96C409.603 225.133 411.123 225.72 412.75 225.72C414.19 225.72 415.403 225.267 416.39 224.36C417.377 223.453 417.87 222.347 417.87 221.04C417.87 219.92 417.55 219.027 416.91 218.36C416.43 217.88 414.883 216.933 412.27 215.52C409.363 213.973 407.39 212.427 406.35 210.88C405.39 209.467 404.91 207.787 404.91 205.84C404.91 203.547 405.723 201.653 407.35 200.16C408.977 198.64 411.03 197.88 413.51 197.88C414.843 197.88 416.27 198.2 417.79 198.84C418.297 199.053 418.657 199.16 418.87 199.16C419.27 199.16 419.537 198.813 419.67 198.12C419.723 197.88 419.843 197.76 420.03 197.76C420.297 197.76 420.43 197.933 420.43 198.28C420.43 198.413 420.403 198.787 420.35 199.4C420.297 200.013 420.27 200.52 420.27 200.92C420.27 202.307 420.323 203.48 420.43 204.44C420.457 204.52 420.47 204.627 420.47 204.76C420.47 205 420.363 205.12 420.15 205.12C419.91 205.12 419.67 204.693 419.43 203.84C419.19 202.987 418.763 202.147 418.15 201.32C417.563 200.467 416.963 199.853 416.35 199.48C415.55 199 414.617 198.76 413.55 198.76C412.057 198.76 410.87 199.12 409.99 199.84C409.11 200.56 408.67 201.547 408.67 202.8C408.67 203.893 409.083 204.867 409.91 205.72C410.737 206.547 412.323 207.613 414.67 208.92C417.55 210.52 419.457 211.8 420.39 212.76C421.75 214.173 422.43 215.96 422.43 218.12Z" fill="#F9EEE0"/>
<path d="M161.34 256.5L170 265.16L178.66 256.5L170 247.84L161.34 256.5ZM496.66 256.5L488 247.84L479.34 256.5L488 265.16L496.66 256.5ZM170 258H488V255H170V258Z" fill="#F9EEE0"/>
</svg>
