<svg width="443" height="361" viewBox="0 0 443 361" fill="none" xmlns="http://www.w3.org/2000/svg">
<rect width="443" height="361" fill="white"/>
<mask id="mask0_703_3117" style="mask-type:alpha" maskUnits="userSpaceOnUse" x="0" y="0" width="443" height="361">
<rect width="443" height="361" fill="white"/>
</mask>
<g mask="url(#mask0_703_3117)">
<path d="M156.145 243.731C87.8677 243.731 0 285.357 0 285.357V551.879C0 551.879 47.1255 839.964 88.3174 830.785C150.011 817.038 184.096 796.006 246.582 796.006C289.958 796.006 328.894 774.051 374.112 778.639C411.461 782.428 443 509.036 443 509.036V198C443 198 362.874 273.004 305.24 271.447C250.377 269.964 211.019 243.731 156.145 243.731Z" fill="url(#paint0_linear_703_3117)"/>
</g>
<circle cx="222" cy="150" r="54" fill="#130D6F"/>
<path d="M276 150C276 150 269 144 255.333 144C241.667 144 231.667 150 222 150C212.333 150 204.333 144 190.667 144C177 144 168 150 168 150C168 120.177 192.177 96 222 96C251.823 96 276 120.177 276 150Z" fill="#5E72EB"/>
<circle cx="196.669" cy="140.668" r="4.66667" fill="white"/>
<ellipse cx="246.669" cy="140.668" rx="4.66666" ry="4.66667" fill="white"/>
<path d="M213.334 147.001C213.334 147.001 216.228 151.668 221.001 151.668C225.773 151.668 228.667 147.001 228.667 147.001" stroke="white" stroke-width="9" stroke-linecap="round"/>
<path d="M203.831 213.83C205.114 213.83 206.084 214.099 206.743 214.636C207.419 215.173 207.878 215.893 208.121 216.794C208.381 217.678 208.511 218.666 208.511 219.758V226.414C208.511 226.865 208.364 227.246 208.069 227.558C207.774 227.853 207.402 228 206.951 228C206.5 228 206.128 227.853 205.833 227.558C205.538 227.246 205.391 226.865 205.391 226.414V219.758C205.391 219.186 205.313 218.675 205.157 218.224C205.018 217.756 204.758 217.383 204.377 217.106C203.996 216.829 203.45 216.69 202.739 216.69C202.046 216.69 201.456 216.829 200.971 217.106C200.503 217.383 200.139 217.756 199.879 218.224C199.636 218.675 199.515 219.186 199.515 219.758V226.414C199.515 226.865 199.368 227.246 199.073 227.558C198.778 227.853 198.406 228 197.955 228C197.504 228 197.132 227.853 196.837 227.558C196.542 227.246 196.395 226.865 196.395 226.414V215.676C196.395 215.225 196.542 214.853 196.837 214.558C197.132 214.246 197.504 214.09 197.955 214.09C198.406 214.09 198.778 214.246 199.073 214.558C199.368 214.853 199.515 215.225 199.515 215.676V216.794L199.125 216.716C199.281 216.421 199.506 216.109 199.801 215.78C200.096 215.433 200.442 215.113 200.841 214.818C201.24 214.523 201.69 214.289 202.193 214.116C202.696 213.925 203.242 213.83 203.831 213.83ZM222.078 214.09C222.529 214.09 222.902 214.246 223.196 214.558C223.491 214.853 223.638 215.225 223.638 215.676V226.726C223.638 228.321 223.335 229.586 222.728 230.522C222.139 231.475 221.342 232.16 220.336 232.576C219.331 232.992 218.204 233.2 216.956 233.2C216.402 233.2 215.812 233.157 215.188 233.07C214.564 232.983 214.053 232.853 213.654 232.68C213.134 232.455 212.77 232.169 212.562 231.822C212.372 231.493 212.337 231.137 212.458 230.756C212.614 230.253 212.866 229.907 213.212 229.716C213.559 229.543 213.923 229.525 214.304 229.664C214.582 229.751 214.946 229.881 215.396 230.054C215.847 230.245 216.367 230.34 216.956 230.34C217.754 230.34 218.412 230.227 218.932 230.002C219.47 229.794 219.868 229.43 220.128 228.91C220.406 228.407 220.544 227.714 220.544 226.83V225.088L221.09 225.712C220.796 226.284 220.423 226.761 219.972 227.142C219.539 227.506 219.019 227.783 218.412 227.974C217.806 228.165 217.112 228.26 216.332 228.26C215.414 228.26 214.608 228.052 213.914 227.636C213.238 227.203 212.71 226.613 212.328 225.868C211.947 225.105 211.756 224.239 211.756 223.268V215.676C211.756 215.225 211.904 214.853 212.198 214.558C212.493 214.246 212.866 214.09 213.316 214.09C213.767 214.09 214.14 214.246 214.434 214.558C214.729 214.853 214.876 215.225 214.876 215.676V222.332C214.876 223.459 215.119 224.256 215.604 224.724C216.107 225.175 216.8 225.4 217.684 225.4C218.291 225.4 218.802 225.287 219.218 225.062C219.634 224.819 219.955 224.473 220.18 224.022C220.406 223.554 220.518 222.991 220.518 222.332V215.676C220.518 215.225 220.666 214.853 220.96 214.558C221.255 214.246 221.628 214.09 222.078 214.09ZM234.322 213.83C235.709 213.83 236.732 214.168 237.39 214.844C238.049 215.503 238.482 216.361 238.69 217.418L238.248 217.184L238.456 216.768C238.664 216.369 238.985 215.945 239.418 215.494C239.852 215.026 240.372 214.636 240.978 214.324C241.602 213.995 242.296 213.83 243.058 213.83C244.306 213.83 245.251 214.099 245.892 214.636C246.551 215.173 247.002 215.893 247.244 216.794C247.487 217.678 247.608 218.666 247.608 219.758V226.414C247.608 226.865 247.461 227.246 247.166 227.558C246.872 227.853 246.499 228 246.048 228C245.598 228 245.225 227.853 244.93 227.558C244.636 227.246 244.488 226.865 244.488 226.414V219.758C244.488 219.186 244.419 218.675 244.28 218.224C244.142 217.756 243.89 217.383 243.526 217.106C243.162 216.829 242.642 216.69 241.966 216.69C241.308 216.69 240.744 216.829 240.276 217.106C239.808 217.383 239.453 217.756 239.21 218.224C238.985 218.675 238.872 219.186 238.872 219.758V226.414C238.872 226.865 238.725 227.246 238.43 227.558C238.136 227.853 237.763 228 237.312 228C236.862 228 236.489 227.853 236.194 227.558C235.9 227.246 235.752 226.865 235.752 226.414V219.758C235.752 219.186 235.683 218.675 235.544 218.224C235.406 217.756 235.154 217.383 234.79 217.106C234.426 216.829 233.906 216.69 233.23 216.69C232.572 216.69 232.008 216.829 231.54 217.106C231.072 217.383 230.717 217.756 230.474 218.224C230.249 218.675 230.136 219.186 230.136 219.758V226.414C230.136 226.865 229.989 227.246 229.694 227.558C229.4 227.853 229.027 228 228.576 228C228.126 228 227.753 227.853 227.458 227.558C227.164 227.246 227.016 226.865 227.016 226.414V215.676C227.016 215.225 227.164 214.853 227.458 214.558C227.753 214.246 228.126 214.09 228.576 214.09C229.027 214.09 229.4 214.246 229.694 214.558C229.989 214.853 230.136 215.225 230.136 215.676V216.794L229.746 216.716C229.902 216.421 230.119 216.109 230.396 215.78C230.674 215.433 231.012 215.113 231.41 214.818C231.809 214.523 232.251 214.289 232.736 214.116C233.222 213.925 233.75 213.83 234.322 213.83Z" fill="url(#paint1_linear_703_3117)"/>
<defs>
<linearGradient id="paint0_linear_703_3117" x1="221.5" y1="198" x2="221.806" y2="454.293" gradientUnits="userSpaceOnUse">
<stop stop-color="#FFD4D3"/>
<stop offset="1" stop-color="#FDCFAC"/>
</linearGradient>
<linearGradient id="paint1_linear_703_3117" x1="197.5" y1="204" x2="250" y2="204" gradientUnits="userSpaceOnUse">
<stop stop-color="#130D6F"/>
<stop offset="0.78196" stop-color="#5E76E4"/>
</linearGradient>
</defs>
</svg>
