<svg width="422" height="377" viewBox="0 0 422 377" fill="none" xmlns="http://www.w3.org/2000/svg">
<rect width="422" height="377" fill="url(#paint0_linear_407_239)"/>
<path d="M145.24 150.83H150.709V177.285L126.578 148.984H115.025V150.83H120.494V188.154H115.025V190H129.176C128.902 188.861 128.287 188.245 127.33 188.154H123.365V159.648L149.684 190.342L153.58 189.658V150.83H159.049V148.984H145.24V150.83ZM200.721 190C200.447 188.861 199.832 188.245 198.875 188.154H194.91V172.158L204.207 152.744C205.073 151.514 206.212 150.876 207.625 150.83C208.764 150.557 209.38 149.941 209.471 148.984H197.439V150.83H202.908L193.68 169.766L183.699 150.83H188.895V148.984H169.754V150.83H172.967L185.34 172.637V188.154H179.529V190H200.721ZM255.312 178.584C255.312 174.801 253.239 171.566 249.092 168.877C248.499 168.558 246.107 167.282 241.914 165.049C238.086 163.044 235.693 161.061 234.736 159.102C234.281 158.145 234.053 157.142 234.053 156.094C234.053 153.405 235.352 151.628 237.949 150.762C238.815 150.488 239.727 150.352 240.684 150.352C244.421 150.352 247.223 151.764 249.092 154.59C250.231 156.367 250.824 158.486 250.869 160.947H253.535V148.574C252.259 148.574 251.507 149.007 251.279 149.873C251.234 150.192 251.211 150.557 251.211 150.967C247.428 149.189 243.441 148.301 239.248 148.301C233.734 148.301 229.587 149.736 226.807 152.607C225.029 154.476 224.141 156.686 224.141 159.238C224.141 163.021 226.305 166.257 230.635 168.945C231.182 169.31 233.643 170.609 238.018 172.842C241.937 174.893 244.375 176.875 245.332 178.789C245.742 179.701 245.947 180.635 245.947 181.592C245.947 184.873 244.489 187.061 241.572 188.154C240.524 188.519 239.362 188.701 238.086 188.701C233.255 188.701 229.86 186.491 227.9 182.07C227.08 180.202 226.579 178.06 226.396 175.645H223.73V190.137C224.961 190.137 225.69 189.772 225.918 189.043C226.009 188.587 226.055 187.972 226.055 187.197C229.564 189.521 233.802 190.684 238.77 190.684C244.557 190.684 249.001 189.202 252.1 186.24C254.242 184.144 255.312 181.592 255.312 178.584ZM303.957 178.584C303.957 174.801 301.883 171.566 297.736 168.877C297.144 168.558 294.751 167.282 290.559 165.049C286.73 163.044 284.338 161.061 283.381 159.102C282.925 158.145 282.697 157.142 282.697 156.094C282.697 153.405 283.996 151.628 286.594 150.762C287.46 150.488 288.371 150.352 289.328 150.352C293.065 150.352 295.868 151.764 297.736 154.59C298.876 156.367 299.468 158.486 299.514 160.947H302.18V148.574C300.904 148.574 300.152 149.007 299.924 149.873C299.878 150.192 299.855 150.557 299.855 150.967C296.073 149.189 292.085 148.301 287.893 148.301C282.378 148.301 278.231 149.736 275.451 152.607C273.674 154.476 272.785 156.686 272.785 159.238C272.785 163.021 274.95 166.257 279.279 168.945C279.826 169.31 282.287 170.609 286.662 172.842C290.581 174.893 293.02 176.875 293.977 178.789C294.387 179.701 294.592 180.635 294.592 181.592C294.592 184.873 293.133 187.061 290.217 188.154C289.169 188.519 288.007 188.701 286.73 188.701C281.9 188.701 278.505 186.491 276.545 182.07C275.725 180.202 275.223 178.06 275.041 175.645H272.375V190.137C273.605 190.137 274.335 189.772 274.562 189.043C274.654 188.587 274.699 187.972 274.699 187.197C278.208 189.521 282.447 190.684 287.414 190.684C293.202 190.684 297.645 189.202 300.744 186.24C302.886 184.144 303.957 181.592 303.957 178.584Z" fill="#F2DEE0"/>
<path d="M159.434 216.93C159.604 216.93 159.779 216.95 159.959 216.99C160.149 217.03 160.309 217.1 160.439 217.2C160.579 217.3 160.649 217.435 160.649 217.605C160.649 217.765 160.599 217.9 160.499 218.01C160.399 218.11 160.279 218.16 160.139 218.16C160.049 218.16 159.924 218.135 159.764 218.085C159.604 218.025 159.439 217.995 159.269 217.995C159.039 217.995 158.849 218.045 158.699 218.145C158.559 218.245 158.454 218.38 158.384 218.55C158.324 218.71 158.294 218.89 158.294 219.09V227.385C158.294 227.555 158.234 227.7 158.114 227.82C158.004 227.94 157.864 228 157.694 228C157.514 228 157.369 227.94 157.259 227.82C157.149 227.7 157.094 227.555 157.094 227.385V219.105C157.094 218.435 157.299 217.905 157.709 217.515C158.129 217.125 158.704 216.93 159.434 216.93ZM159.854 220.365C160.014 220.365 160.149 220.42 160.259 220.53C160.369 220.63 160.424 220.76 160.424 220.92C160.424 221.08 160.369 221.215 160.259 221.325C160.149 221.425 160.014 221.475 159.854 221.475H156.089C155.929 221.475 155.794 221.42 155.684 221.31C155.574 221.2 155.519 221.07 155.519 220.92C155.519 220.75 155.574 220.615 155.684 220.515C155.794 220.415 155.929 220.365 156.089 220.365H159.854ZM169.87 220.17C170.04 220.17 170.18 220.23 170.29 220.35C170.41 220.46 170.47 220.6 170.47 220.77V227.385C170.47 227.555 170.41 227.7 170.29 227.82C170.18 227.94 170.04 228 169.87 228C169.69 228 169.545 227.94 169.435 227.82C169.325 227.7 169.27 227.555 169.27 227.385V225.96L169.555 225.93C169.555 226.15 169.48 226.39 169.33 226.65C169.18 226.91 168.975 227.155 168.715 227.385C168.455 227.605 168.145 227.79 167.785 227.94C167.435 228.08 167.055 228.15 166.645 228.15C165.965 228.15 165.355 227.975 164.815 227.625C164.275 227.265 163.845 226.78 163.525 226.17C163.215 225.56 163.06 224.865 163.06 224.085C163.06 223.295 163.215 222.6 163.525 222C163.845 221.39 164.275 220.915 164.815 220.575C165.355 220.225 165.955 220.05 166.615 220.05C167.045 220.05 167.445 220.12 167.815 220.26C168.185 220.4 168.505 220.59 168.775 220.83C169.055 221.07 169.27 221.335 169.42 221.625C169.58 221.915 169.66 222.205 169.66 222.495L169.27 222.405V220.77C169.27 220.6 169.325 220.46 169.435 220.35C169.545 220.23 169.69 220.17 169.87 220.17ZM166.78 227.04C167.28 227.04 167.72 226.91 168.1 226.65C168.49 226.39 168.79 226.04 169 225.6C169.22 225.15 169.33 224.645 169.33 224.085C169.33 223.535 169.22 223.04 169 222.6C168.79 222.15 168.49 221.8 168.1 221.55C167.72 221.29 167.28 221.16 166.78 221.16C166.29 221.16 165.85 221.285 165.46 221.535C165.08 221.785 164.78 222.13 164.56 222.57C164.34 223.01 164.23 223.515 164.23 224.085C164.23 224.645 164.335 225.15 164.545 225.6C164.765 226.04 165.065 226.39 165.445 226.65C165.835 226.91 166.28 227.04 166.78 227.04ZM166.885 219.6C166.605 219.6 166.345 219.53 166.105 219.39C165.865 219.25 165.67 219.065 165.52 218.835C165.37 218.605 165.295 218.35 165.295 218.07C165.295 217.79 165.37 217.535 165.52 217.305C165.67 217.065 165.865 216.88 166.105 216.75C166.345 216.61 166.605 216.54 166.885 216.54C167.165 216.54 167.425 216.61 167.665 216.75C167.915 216.88 168.11 217.065 168.25 217.305C168.4 217.535 168.475 217.79 168.475 218.07C168.475 218.35 168.4 218.605 168.25 218.835C168.11 219.065 167.915 219.25 167.665 219.39C167.425 219.53 167.165 219.6 166.885 219.6ZM166.885 218.835C167.115 218.835 167.305 218.76 167.455 218.61C167.605 218.46 167.68 218.28 167.68 218.07C167.68 217.84 167.6 217.655 167.44 217.515C167.29 217.375 167.105 217.305 166.885 217.305C166.665 217.305 166.475 217.375 166.315 217.515C166.165 217.655 166.09 217.84 166.09 218.07C166.09 218.28 166.165 218.46 166.315 218.61C166.475 218.76 166.665 218.835 166.885 218.835ZM186.215 216.9C186.385 216.9 186.525 216.96 186.635 217.08C186.755 217.19 186.815 217.33 186.815 217.5V227.385C186.815 227.555 186.755 227.7 186.635 227.82C186.525 227.94 186.385 228 186.215 228C186.035 228 185.89 227.94 185.78 227.82C185.67 227.7 185.615 227.555 185.615 227.385V225.96L185.9 225.855C185.9 226.095 185.825 226.35 185.675 226.62C185.525 226.88 185.32 227.125 185.06 227.355C184.8 227.585 184.49 227.775 184.13 227.925C183.78 228.075 183.4 228.15 182.99 228.15C182.32 228.15 181.71 227.975 181.16 227.625C180.62 227.275 180.19 226.795 179.87 226.185C179.56 225.575 179.405 224.88 179.405 224.1C179.405 223.31 179.56 222.61 179.87 222C180.19 221.39 180.62 220.915 181.16 220.575C181.7 220.225 182.3 220.05 182.96 220.05C183.38 220.05 183.775 220.12 184.145 220.26C184.515 220.4 184.835 220.59 185.105 220.83C185.385 221.07 185.605 221.335 185.765 221.625C185.925 221.915 186.005 222.205 186.005 222.495L185.615 222.405V217.5C185.615 217.33 185.67 217.19 185.78 217.08C185.89 216.96 186.035 216.9 186.215 216.9ZM183.125 227.04C183.625 227.04 184.065 226.915 184.445 226.665C184.835 226.405 185.135 226.055 185.345 225.615C185.565 225.165 185.675 224.66 185.675 224.1C185.675 223.53 185.565 223.025 185.345 222.585C185.135 222.145 184.835 221.8 184.445 221.55C184.065 221.29 183.625 221.16 183.125 221.16C182.635 221.16 182.195 221.29 181.805 221.55C181.425 221.8 181.125 222.145 180.905 222.585C180.685 223.025 180.575 223.53 180.575 224.1C180.575 224.65 180.685 225.15 180.905 225.6C181.125 226.04 181.425 226.39 181.805 226.65C182.195 226.91 182.635 227.04 183.125 227.04ZM199.875 220.125C200.555 220.125 201.105 220.3 201.525 220.65C201.955 220.99 202.24 221.475 202.38 222.105H202.155L202.26 221.835C202.38 221.555 202.585 221.285 202.875 221.025C203.165 220.765 203.5 220.55 203.88 220.38C204.26 220.21 204.655 220.125 205.065 220.125C205.725 220.125 206.245 220.27 206.625 220.56C207.005 220.84 207.275 221.22 207.435 221.7C207.605 222.17 207.69 222.7 207.69 223.29V227.385C207.69 227.555 207.63 227.7 207.51 227.82C207.4 227.94 207.26 228 207.09 228C206.91 228 206.765 227.94 206.655 227.82C206.545 227.7 206.49 227.555 206.49 227.385V223.32C206.49 222.93 206.43 222.58 206.31 222.27C206.2 221.95 206.015 221.7 205.755 221.52C205.505 221.33 205.16 221.235 204.72 221.235C204.31 221.235 203.935 221.33 203.595 221.52C203.255 221.7 202.985 221.95 202.785 222.27C202.585 222.58 202.485 222.93 202.485 223.32V227.385C202.485 227.555 202.43 227.7 202.32 227.82C202.21 227.94 202.065 228 201.885 228C201.715 228 201.57 227.94 201.45 227.82C201.34 227.7 201.285 227.555 201.285 227.385V223.275C201.285 222.895 201.23 222.555 201.12 222.255C201.02 221.945 200.845 221.7 200.595 221.52C200.345 221.33 200 221.235 199.56 221.235C199.16 221.235 198.795 221.33 198.465 221.52C198.135 221.7 197.87 221.945 197.67 222.255C197.47 222.555 197.37 222.895 197.37 223.275V227.385C197.37 227.555 197.31 227.7 197.19 227.82C197.08 227.94 196.94 228 196.77 228C196.6 228 196.455 227.94 196.335 227.82C196.225 227.7 196.17 227.555 196.17 227.385V220.845C196.17 220.675 196.225 220.535 196.335 220.425C196.455 220.305 196.6 220.245 196.77 220.245C196.95 220.245 197.095 220.305 197.205 220.425C197.315 220.535 197.37 220.675 197.37 220.845V221.985L197.04 222.345C197.08 222.085 197.18 221.825 197.34 221.565C197.51 221.305 197.725 221.065 197.985 220.845C198.245 220.625 198.535 220.45 198.855 220.32C199.175 220.19 199.515 220.125 199.875 220.125ZM214.995 228.15C214.195 228.15 213.495 227.98 212.895 227.64C212.295 227.3 211.825 226.835 211.485 226.245C211.155 225.645 210.99 224.955 210.99 224.175C210.99 223.305 211.16 222.565 211.5 221.955C211.85 221.335 212.3 220.865 212.85 220.545C213.41 220.215 214 220.05 214.62 220.05C215.08 220.05 215.525 220.135 215.955 220.305C216.385 220.475 216.765 220.725 217.095 221.055C217.425 221.375 217.69 221.765 217.89 222.225C218.09 222.675 218.195 223.18 218.205 223.74C218.205 223.9 218.145 224.035 218.025 224.145C217.905 224.255 217.765 224.31 217.605 224.31H211.68L211.41 223.275H217.185L216.945 223.485V223.155C216.905 222.745 216.765 222.395 216.525 222.105C216.295 221.805 216.01 221.575 215.67 221.415C215.34 221.255 214.99 221.175 214.62 221.175C214.32 221.175 214.02 221.23 213.72 221.34C213.43 221.44 213.165 221.61 212.925 221.85C212.695 222.08 212.505 222.38 212.355 222.75C212.215 223.12 212.145 223.565 212.145 224.085C212.145 224.665 212.26 225.175 212.49 225.615C212.73 226.055 213.06 226.405 213.48 226.665C213.9 226.915 214.39 227.04 214.95 227.04C215.3 227.04 215.605 226.995 215.865 226.905C216.125 226.815 216.35 226.705 216.54 226.575C216.73 226.435 216.89 226.295 217.02 226.155C217.15 226.065 217.275 226.02 217.395 226.02C217.545 226.02 217.665 226.07 217.755 226.17C217.855 226.27 217.905 226.39 217.905 226.53C217.905 226.7 217.825 226.85 217.665 226.98C217.385 227.29 217.005 227.565 216.525 227.805C216.045 228.035 215.535 228.15 214.995 228.15ZM227.898 216.9C228.068 216.9 228.208 216.96 228.318 217.08C228.438 217.19 228.498 217.33 228.498 217.5V227.385C228.498 227.555 228.438 227.7 228.318 227.82C228.208 227.94 228.068 228 227.898 228C227.718 228 227.573 227.94 227.463 227.82C227.353 227.7 227.298 227.555 227.298 227.385V225.96L227.583 225.855C227.583 226.095 227.508 226.35 227.358 226.62C227.208 226.88 227.003 227.125 226.743 227.355C226.483 227.585 226.173 227.775 225.813 227.925C225.463 228.075 225.083 228.15 224.673 228.15C224.003 228.15 223.393 227.975 222.843 227.625C222.303 227.275 221.873 226.795 221.553 226.185C221.243 225.575 221.088 224.88 221.088 224.1C221.088 223.31 221.243 222.61 221.553 222C221.873 221.39 222.303 220.915 222.843 220.575C223.383 220.225 223.983 220.05 224.643 220.05C225.063 220.05 225.458 220.12 225.828 220.26C226.198 220.4 226.518 220.59 226.788 220.83C227.068 221.07 227.288 221.335 227.448 221.625C227.608 221.915 227.688 222.205 227.688 222.495L227.298 222.405V217.5C227.298 217.33 227.353 217.19 227.463 217.08C227.573 216.96 227.718 216.9 227.898 216.9ZM224.808 227.04C225.308 227.04 225.748 226.915 226.128 226.665C226.518 226.405 226.818 226.055 227.028 225.615C227.248 225.165 227.358 224.66 227.358 224.1C227.358 223.53 227.248 223.025 227.028 222.585C226.818 222.145 226.518 221.8 226.128 221.55C225.748 221.29 225.308 221.16 224.808 221.16C224.318 221.16 223.878 221.29 223.488 221.55C223.108 221.8 222.808 222.145 222.588 222.585C222.368 223.025 222.258 223.53 222.258 224.1C222.258 224.65 222.368 225.15 222.588 225.6C222.808 226.04 223.108 226.39 223.488 226.65C223.878 226.91 224.318 227.04 224.808 227.04ZM244.243 216.9C244.413 216.9 244.553 216.96 244.663 217.08C244.783 217.19 244.843 217.33 244.843 217.5V227.385C244.843 227.555 244.783 227.7 244.663 227.82C244.553 227.94 244.413 228 244.243 228C244.063 228 243.918 227.94 243.808 227.82C243.698 227.7 243.643 227.555 243.643 227.385V225.96L243.928 225.855C243.928 226.095 243.853 226.35 243.703 226.62C243.553 226.88 243.348 227.125 243.088 227.355C242.828 227.585 242.518 227.775 242.158 227.925C241.808 228.075 241.428 228.15 241.018 228.15C240.348 228.15 239.738 227.975 239.188 227.625C238.648 227.275 238.218 226.795 237.898 226.185C237.588 225.575 237.433 224.88 237.433 224.1C237.433 223.31 237.588 222.61 237.898 222C238.218 221.39 238.648 220.915 239.188 220.575C239.728 220.225 240.328 220.05 240.988 220.05C241.408 220.05 241.803 220.12 242.173 220.26C242.543 220.4 242.863 220.59 243.133 220.83C243.413 221.07 243.633 221.335 243.793 221.625C243.953 221.915 244.033 222.205 244.033 222.495L243.643 222.405V217.5C243.643 217.33 243.698 217.19 243.808 217.08C243.918 216.96 244.063 216.9 244.243 216.9ZM241.153 227.04C241.653 227.04 242.093 226.915 242.473 226.665C242.863 226.405 243.163 226.055 243.373 225.615C243.593 225.165 243.703 224.66 243.703 224.1C243.703 223.53 243.593 223.025 243.373 222.585C243.163 222.145 242.863 221.8 242.473 221.55C242.093 221.29 241.653 221.16 241.153 221.16C240.663 221.16 240.223 221.29 239.833 221.55C239.453 221.8 239.153 222.145 238.933 222.585C238.713 223.025 238.603 223.53 238.603 224.1C238.603 224.65 238.713 225.15 238.933 225.6C239.153 226.04 239.453 226.39 239.833 226.65C240.223 226.91 240.663 227.04 241.153 227.04ZM252.152 228.15C251.352 228.15 250.652 227.98 250.052 227.64C249.452 227.3 248.982 226.835 248.642 226.245C248.312 225.645 248.147 224.955 248.147 224.175C248.147 223.305 248.317 222.565 248.657 221.955C249.007 221.335 249.457 220.865 250.007 220.545C250.567 220.215 251.157 220.05 251.777 220.05C252.237 220.05 252.682 220.135 253.112 220.305C253.542 220.475 253.922 220.725 254.252 221.055C254.582 221.375 254.847 221.765 255.047 222.225C255.247 222.675 255.352 223.18 255.362 223.74C255.362 223.9 255.302 224.035 255.182 224.145C255.062 224.255 254.922 224.31 254.762 224.31H248.837L248.567 223.275H254.342L254.102 223.485V223.155C254.062 222.745 253.922 222.395 253.682 222.105C253.452 221.805 253.167 221.575 252.827 221.415C252.497 221.255 252.147 221.175 251.777 221.175C251.477 221.175 251.177 221.23 250.877 221.34C250.587 221.44 250.322 221.61 250.082 221.85C249.852 222.08 249.662 222.38 249.512 222.75C249.372 223.12 249.302 223.565 249.302 224.085C249.302 224.665 249.417 225.175 249.647 225.615C249.887 226.055 250.217 226.405 250.637 226.665C251.057 226.915 251.547 227.04 252.107 227.04C252.457 227.04 252.762 226.995 253.022 226.905C253.282 226.815 253.507 226.705 253.697 226.575C253.887 226.435 254.047 226.295 254.177 226.155C254.307 226.065 254.432 226.02 254.552 226.02C254.702 226.02 254.822 226.07 254.912 226.17C255.012 226.27 255.062 226.39 255.062 226.53C255.062 226.7 254.982 226.85 254.822 226.98C254.542 227.29 254.162 227.565 253.682 227.805C253.202 228.035 252.692 228.15 252.152 228.15ZM261.847 220.05C262.277 220.05 262.677 220.125 263.047 220.275C263.417 220.415 263.737 220.6 264.007 220.83C264.287 221.06 264.502 221.3 264.652 221.55C264.812 221.8 264.892 222.035 264.892 222.255L264.607 222.075V220.77C264.607 220.6 264.662 220.46 264.772 220.35C264.882 220.23 265.027 220.17 265.207 220.17C265.377 220.17 265.517 220.23 265.627 220.35C265.747 220.46 265.807 220.6 265.807 220.77V227.34C265.807 228.16 265.632 228.84 265.282 229.38C264.942 229.92 264.482 230.325 263.902 230.595C263.322 230.865 262.672 231 261.952 231C261.652 231 261.322 230.96 260.962 230.88C260.602 230.8 260.282 230.7 260.002 230.58C259.722 230.47 259.542 230.355 259.462 230.235C259.312 230.135 259.217 230.02 259.177 229.89C259.147 229.77 259.172 229.655 259.252 229.545C259.342 229.405 259.457 229.335 259.597 229.335C259.747 229.335 259.932 229.38 260.152 229.47C260.242 229.5 260.382 229.55 260.572 229.62C260.772 229.69 260.992 229.75 261.232 229.8C261.482 229.86 261.727 229.89 261.967 229.89C262.817 229.89 263.467 229.665 263.917 229.215C264.377 228.775 264.607 228.19 264.607 227.46V226.065L264.772 226.14C264.712 226.42 264.587 226.68 264.397 226.92C264.217 227.16 263.992 227.375 263.722 227.565C263.462 227.745 263.172 227.89 262.852 228C262.532 228.1 262.207 228.15 261.877 228.15C261.177 228.15 260.547 227.975 259.987 227.625C259.427 227.275 258.982 226.795 258.652 226.185C258.332 225.575 258.172 224.88 258.172 224.1C258.172 223.31 258.332 222.61 258.652 222C258.982 221.39 259.422 220.915 259.972 220.575C260.532 220.225 261.157 220.05 261.847 220.05ZM261.997 221.16C261.487 221.16 261.027 221.29 260.617 221.55C260.217 221.8 259.902 222.145 259.672 222.585C259.452 223.025 259.342 223.53 259.342 224.1C259.342 224.65 259.452 225.15 259.672 225.6C259.902 226.04 260.217 226.39 260.617 226.65C261.027 226.91 261.487 227.04 261.997 227.04C262.517 227.04 262.977 226.915 263.377 226.665C263.777 226.405 264.092 226.055 264.322 225.615C264.552 225.175 264.667 224.67 264.667 224.1C264.667 223.52 264.552 223.01 264.322 222.57C264.092 222.13 263.777 221.785 263.377 221.535C262.977 221.285 262.517 221.16 261.997 221.16Z" fill="#F2BEAE"/>
<defs>
<linearGradient id="paint0_linear_407_239" x1="211" y1="0" x2="211" y2="377" gradientUnits="userSpaceOnUse">
<stop stop-color="#FE566F"/>
<stop offset="1" stop-color="#FF9D5C"/>
</linearGradient>
</defs>
</svg>
