<svg width="484" height="305" viewBox="0 0 484 305" fill="none" xmlns="http://www.w3.org/2000/svg">
<rect width="484" height="305" fill="#403639"/>
<path d="M330.122 180H320.347V140.796H305.615V130.986H344.819V140.796H330.122V180Z" fill="url(#paint0_linear_301_2678)"/>
<path d="M316.145 188H282.546V138.986H316.145V148.796H292.355V158.605H308.454V168.415H292.355V178.19H316.145V188Z" fill="url(#paint1_linear_301_2678)"/>
<path d="M280.818 154.493C280.818 156.749 280.522 158.925 279.93 161.021C279.36 163.095 278.54 165.043 277.469 166.866C276.398 168.666 275.122 170.318 273.641 171.822C272.16 173.303 270.507 174.579 268.685 175.65C266.862 176.721 264.902 177.553 262.806 178.146C260.732 178.715 258.567 179 256.312 179H241.546V129.986H256.312C258.567 129.986 260.732 130.283 262.806 130.875C264.902 131.445 266.862 132.265 268.685 133.336C270.507 134.407 272.16 135.694 273.641 137.198C275.122 138.679 276.398 140.331 277.469 142.154C278.54 143.954 279.36 145.903 279.93 147.999C280.522 150.073 280.818 152.237 280.818 154.493ZM271.009 154.493C271.009 152.465 270.621 150.562 269.847 148.785C269.095 147.008 268.047 145.458 266.702 144.137C265.381 142.792 263.82 141.733 262.02 140.958C260.242 140.183 258.34 139.796 256.312 139.796H251.424V169.19H256.312C258.34 169.19 260.242 168.814 262.02 168.062C263.82 167.288 265.381 166.24 266.702 164.918C268.047 163.574 269.095 162.013 269.847 160.235C270.621 158.435 271.009 156.521 271.009 154.493Z" fill="url(#paint2_linear_301_2678)"/>
<path d="M240.145 188H206.546V138.986H240.145V148.796H216.355V158.605H232.454V168.415H216.355V178.19H240.145V188Z" fill="url(#paint3_linear_301_2678)"/>
<path d="M201.122 180H191.347V140.796H176.615V130.986H215.819V140.796H201.122V180Z" fill="url(#paint4_linear_301_2678)"/>
<path d="M148.675 152.684C148.675 150.656 149.062 148.753 149.837 146.976C150.612 145.198 151.66 143.649 152.981 142.327C154.326 140.983 155.887 139.923 157.664 139.148C159.441 138.374 161.344 137.986 163.372 137.986H185.862V147.796H163.372C162.688 147.796 162.05 147.921 161.458 148.172C160.866 148.423 160.341 148.776 159.886 149.231C159.453 149.664 159.111 150.177 158.86 150.77C158.61 151.362 158.484 152 158.484 152.684C158.484 153.367 158.61 154.017 158.86 154.632C159.111 155.224 159.453 155.748 159.886 156.204C160.341 156.637 160.866 156.979 161.458 157.229C162.05 157.48 162.688 157.605 163.372 157.605H173.182C175.21 157.605 177.112 157.993 178.89 158.768C180.69 159.52 182.251 160.568 183.572 161.912C184.917 163.234 185.965 164.795 186.717 166.595C187.492 168.372 187.879 170.275 187.879 172.303C187.879 174.331 187.492 176.233 186.717 178.011C185.965 179.788 184.917 181.349 183.572 182.693C182.251 184.015 180.69 185.063 178.89 185.838C177.112 186.613 175.21 187 173.182 187H151.409V177.19H173.182C173.865 177.19 174.503 177.065 175.096 176.814C175.688 176.564 176.201 176.222 176.634 175.789C177.09 175.333 177.443 174.809 177.693 174.217C177.944 173.624 178.069 172.986 178.069 172.303C178.069 171.619 177.944 170.981 177.693 170.389C177.443 169.796 177.09 169.284 176.634 168.851C176.201 168.395 175.688 168.042 175.096 167.791C174.503 167.54 173.865 167.415 173.182 167.415H163.372C161.344 167.415 159.441 167.028 157.664 166.253C155.887 165.478 154.326 164.43 152.981 163.108C151.66 161.764 150.612 160.203 149.837 158.426C149.062 156.626 148.675 154.712 148.675 152.684Z" fill="url(#paint5_linear_301_2678)"/>
<path d="M325.122 183H315.347V143.796H300.615V133.986H339.819V143.796H325.122V183Z" fill="#403639"/>
<path d="M313.145 192H279.546V142.986H313.145V152.796H289.355V162.605H305.454V172.415H289.355V182.19H313.145V192Z" fill="#403639"/>
<path d="M277.818 157.493C277.818 159.749 277.522 161.925 276.93 164.021C276.36 166.095 275.54 168.043 274.469 169.866C273.398 171.666 272.122 173.318 270.641 174.822C269.16 176.303 267.507 177.579 265.685 178.65C263.862 179.721 261.902 180.553 259.806 181.146C257.732 181.715 255.567 182 253.312 182H238.546V132.986H253.312C255.567 132.986 257.732 133.283 259.806 133.875C261.902 134.445 263.862 135.265 265.685 136.336C267.507 137.407 269.16 138.694 270.641 140.198C272.122 141.679 273.398 143.331 274.469 145.154C275.54 146.954 276.36 148.903 276.93 150.999C277.522 153.073 277.818 155.237 277.818 157.493ZM268.009 157.493C268.009 155.465 267.621 153.562 266.847 151.785C266.095 150.008 265.047 148.458 263.702 147.137C262.381 145.792 260.82 144.733 259.02 143.958C257.242 143.183 255.34 142.796 253.312 142.796H248.424V172.19H253.312C255.34 172.19 257.242 171.814 259.02 171.062C260.82 170.288 262.381 169.24 263.702 167.918C265.047 166.574 266.095 165.013 266.847 163.235C267.621 161.435 268.009 159.521 268.009 157.493Z" fill="#403639"/>
<path d="M236.145 190H202.546V140.986H236.145V150.796H212.355V160.605H228.454V170.415H212.355V180.19H236.145V190Z" fill="#403639"/>
<path d="M197.122 182H187.347V142.796H172.615V132.986H211.819V142.796H197.122V182Z" fill="#403639"/>
<path d="M145.675 155.684C145.675 153.656 146.062 151.753 146.837 149.976C147.612 148.198 148.66 146.649 149.981 145.327C151.326 143.983 152.887 142.923 154.664 142.148C156.441 141.374 158.344 140.986 160.372 140.986H182.862V150.796H160.372C159.688 150.796 159.05 150.921 158.458 151.172C157.866 151.423 157.341 151.776 156.886 152.231C156.453 152.664 156.111 153.177 155.86 153.77C155.61 154.362 155.484 155 155.484 155.684C155.484 156.367 155.61 157.017 155.86 157.632C156.111 158.224 156.453 158.748 156.886 159.204C157.341 159.637 157.866 159.979 158.458 160.229C159.05 160.48 159.688 160.605 160.372 160.605H170.182C172.21 160.605 174.112 160.993 175.89 161.768C177.69 162.52 179.251 163.568 180.572 164.912C181.917 166.234 182.965 167.795 183.717 169.595C184.492 171.372 184.879 173.275 184.879 175.303C184.879 177.331 184.492 179.233 183.717 181.011C182.965 182.788 181.917 184.349 180.572 185.693C179.251 187.015 177.69 188.063 175.89 188.838C174.112 189.613 172.21 190 170.182 190H148.409V180.19H170.182C170.865 180.19 171.503 180.065 172.096 179.814C172.688 179.564 173.201 179.222 173.634 178.789C174.09 178.333 174.443 177.809 174.693 177.217C174.944 176.624 175.069 175.986 175.069 175.303C175.069 174.619 174.944 173.981 174.693 173.389C174.443 172.796 174.09 172.284 173.634 171.851C173.201 171.395 172.688 171.042 172.096 170.791C171.503 170.54 170.865 170.415 170.182 170.415H160.372C158.344 170.415 156.441 170.028 154.664 169.253C152.887 168.478 151.326 167.43 149.981 166.108C148.66 164.764 147.612 163.203 146.837 161.426C146.062 159.626 145.675 157.712 145.675 155.684Z" fill="#403639"/>
<defs>
<linearGradient id="paint0_linear_301_2678" x1="325.5" y1="111" x2="325.5" y2="180" gradientUnits="userSpaceOnUse">
<stop offset="0.291667" stop-color="#C88E44"/>
<stop offset="0.807292" stop-color="#D47676"/>
</linearGradient>
<linearGradient id="paint1_linear_301_2678" x1="299.5" y1="119" x2="299.5" y2="188" gradientUnits="userSpaceOnUse">
<stop offset="0.291667" stop-color="#C88E44"/>
<stop offset="0.734375" stop-color="#D47676"/>
</linearGradient>
<linearGradient id="paint2_linear_301_2678" x1="259.5" y1="110" x2="259.5" y2="179" gradientUnits="userSpaceOnUse">
<stop offset="0.296875" stop-color="#C88E44"/>
<stop offset="0.796875" stop-color="#D47676"/>
</linearGradient>
<linearGradient id="paint3_linear_301_2678" x1="224" y1="119" x2="224" y2="188" gradientUnits="userSpaceOnUse">
<stop offset="0.265625" stop-color="#C88E44"/>
<stop offset="0.708333" stop-color="#D47676"/>
</linearGradient>
<linearGradient id="paint4_linear_301_2678" x1="198" y1="111" x2="198" y2="179" gradientUnits="userSpaceOnUse">
<stop offset="0.416667" stop-color="#C88E44"/>
<stop offset="0.625" stop-color="#D47676"/>
</linearGradient>
<linearGradient id="paint5_linear_301_2678" x1="169.5" y1="118" x2="169.5" y2="187" gradientUnits="userSpaceOnUse">
<stop offset="0.411458" stop-color="#C88E44"/>
<stop offset="0.692708" stop-color="#D47676"/>
</linearGradient>
</defs>
</svg>
