<svg width="980" height="660" viewBox="0 0 980 660" fill="none" xmlns="http://www.w3.org/2000/svg">
<rect width="980" height="660" fill="#0D0619"/>
<path d="M592.923 205.904C571.355 187.909 544.574 175.638 514.644 171.789C430.933 161.022 354.307 220.165 343.491 303.891C340.391 327.891 343.035 351.305 350.357 372.751M408.351 449.343C427.736 462.709 450.513 471.777 475.479 474.989C559.189 485.757 635.816 426.613 646.631 342.886C648.337 329.683 648.305 316.649 646.709 304.031" stroke="#866BF4" stroke-opacity="0.2" stroke-width="18" stroke-linejoin="round"/>
<path d="M602.223 386.561C614.87 367.682 622.465 345.098 623.015 320.698C624.551 252.455 570.421 195.864 502.108 194.298C482.526 193.848 463.905 197.969 447.267 205.684M390.558 258.851C381.451 275.58 376.092 294.671 375.633 315.024C374.096 383.266 428.227 439.857 496.54 441.424C507.313 441.671 517.801 440.536 527.822 438.177" stroke="#00B2D9" stroke-opacity="0.2" stroke-width="18" stroke-linejoin="round"/>
<path d="M588.403 286.249C582.729 269.103 572.261 253.317 557.217 241.063C515.137 206.792 453.201 213.116 418.875 255.19C409.035 267.25 402.533 280.939 399.254 295.139M404.942 356.651C410.997 370.528 420.362 383.206 432.912 393.428C474.99 427.7 536.928 421.375 571.254 379.301C576.667 372.665 581.073 365.534 584.483 358.1" stroke="#866BF4" stroke-opacity="0.2" stroke-width="18" stroke-linejoin="round"/>
<path d="M319.955 359.363V292.881H333.795V359.363H319.955ZM346.021 359.363V292.881H358.694L387.364 335.285V292.881H401.114V359.363H388.262L359.772 318.127V359.363H346.021ZM413.339 359.363V292.881H438.505C443.897 292.881 448.631 293.84 452.705 295.757C456.839 297.613 460.254 300.128 462.951 303.303C465.647 306.477 467.683 310.041 469.062 313.994C470.44 317.947 471.129 321.99 471.129 326.122C471.129 330.255 470.44 334.297 469.062 338.25C467.683 342.203 465.647 345.767 462.951 348.942C460.254 352.116 456.839 354.661 452.705 356.578C448.631 358.434 443.897 359.363 438.505 359.363H413.339ZM437.875 305.01H427.181V347.055H437.875C442.25 347.055 445.844 346.037 448.661 344C451.536 341.964 453.663 339.329 455.042 336.094C456.479 332.86 457.198 329.506 457.198 326.032C457.198 322.558 456.479 319.234 455.042 316.06C453.663 312.826 451.536 310.191 448.661 308.154C445.844 306.058 442.25 305.01 437.875 305.01ZM480.833 359.363V292.881H494.674V359.363H480.833ZM537.368 360.261C531.856 360.261 527.033 359.303 522.898 357.386C518.824 355.41 515.408 352.804 512.653 349.57C509.896 346.276 507.829 342.593 506.451 338.52C505.073 334.447 504.384 330.285 504.384 326.032C504.384 321.84 505.073 317.707 506.451 313.634C507.829 309.562 509.896 305.909 512.653 302.674C515.408 299.38 518.824 296.775 522.898 294.858C527.033 292.941 531.856 291.983 537.368 291.983C541.982 291.983 545.906 292.582 549.142 293.78C552.437 294.918 555.163 296.416 557.32 298.272C559.537 300.069 561.305 302.016 562.622 304.111C564.001 306.148 565.019 308.094 565.678 309.951C566.337 311.748 566.757 313.245 566.937 314.443C567.176 315.581 567.296 316.15 567.296 316.15H553.545C553.545 316.15 553.426 315.761 553.186 314.982C553.006 314.144 552.617 313.156 552.017 312.017C551.418 310.82 550.519 309.651 549.321 308.514C548.183 307.375 546.625 306.417 544.648 305.639C542.731 304.8 540.334 304.381 537.458 304.381C533.324 304.381 529.848 305.459 527.033 307.615C524.276 309.711 522.179 312.407 520.741 315.701C519.363 318.995 518.674 322.439 518.674 326.032C518.674 329.626 519.363 333.1 520.741 336.454C522.179 339.748 524.276 342.473 527.033 344.629C529.848 346.725 533.324 347.773 537.458 347.773C540.334 347.773 542.731 347.384 544.648 346.606C546.625 345.827 548.183 344.868 549.321 343.731C550.519 342.533 551.418 341.365 552.017 340.227C552.617 339.029 553.006 338.041 553.186 337.262C553.426 336.484 553.545 336.094 553.545 336.094H567.296C567.296 336.094 567.176 336.693 566.937 337.891C566.757 339.029 566.337 340.526 565.678 342.383C565.019 344.18 564.001 346.126 562.622 348.223C561.305 350.259 559.537 352.206 557.32 354.062C555.163 355.859 552.437 357.356 549.142 358.554C545.906 359.692 541.982 360.261 537.368 360.261ZM577.027 359.363V292.881H590.868V359.363H577.027ZM599.679 359.363L622.328 292.881H640.752L663.4 359.363H648.84L644.617 346.336H618.553L614.239 359.363H599.679ZM622.417 334.297H640.752L631.585 306.537L622.417 334.297Z" fill="#E7E9F9"/>
<path d="M533.051 337.012C535.473 328.468 535.571 319.156 532.833 310.018C525.176 284.462 498.243 269.948 472.676 277.603C465.347 279.797 458.927 283.574 453.675 288.448M439.019 315.052C437.653 322.37 437.964 330.114 440.248 337.736C447.905 363.293 474.838 377.806 500.405 370.151C504.437 368.944 508.195 367.258 511.635 365.172" stroke="#00B2D9" stroke-width="15.0141" stroke-linejoin="round"/>
<path d="M413.339 359.363V292.881H438.505C443.897 292.881 448.631 293.84 452.705 295.757C456.839 297.613 460.254 300.128 462.951 303.303C465.647 306.477 467.683 310.041 469.062 313.994C470.44 317.947 471.129 321.99 471.129 326.122C471.129 330.255 470.44 334.297 469.062 338.25C467.683 342.203 465.647 345.767 462.951 348.942C460.254 352.116 456.839 354.661 452.705 356.578C448.631 358.434 443.897 359.363 438.505 359.363H413.339ZM437.875 305.01H427.181V347.055H437.875C442.25 347.055 445.844 346.037 448.661 344C451.536 341.964 453.663 339.329 455.042 336.094C456.479 332.86 457.198 329.506 457.198 326.032C457.198 322.558 456.479 319.234 455.042 316.06C453.663 312.826 451.536 310.191 448.661 308.154C445.844 306.058 442.25 305.01 437.875 305.01Z" fill="#E7E9F9"/>
<path d="M638.172 424.078C656.824 397.878 668.477 366.234 670.237 331.738C675.155 235.257 600.855 153.022 504.277 148.058C476.594 146.635 450.085 151.716 426.235 161.962M343.871 234.896C330.313 258.197 321.964 284.989 320.496 313.764C315.575 410.244 389.878 492.48 486.456 497.444C501.687 498.225 516.57 497.04 530.84 494.107" stroke="#00B2D9" stroke-opacity="0.2" stroke-width="18" stroke-linejoin="round"/>
<path d="M435.256 514.29C470.256 525.421 508.735 527.045 546.864 516.926C653.506 488.615 717.023 379.191 688.732 272.51C680.623 241.93 665.851 214.896 646.39 192.553M538.341 128.49C508.272 121.885 476.222 122.157 444.417 130.599C337.774 158.906 274.258 268.333 302.548 375.015C307.011 391.838 313.49 407.598 321.659 422.082" stroke="#866BF4" stroke-opacity="0.2" stroke-width="18" stroke-linejoin="round"/>
<path d="M268.001 281.661C259.833 323.234 263.024 367.546 279.64 409.914C326.119 528.41 459.966 586.827 578.605 540.391C612.613 527.081 641.679 506.6 664.748 481.362M724.03 349.118C727.655 313.79 723.133 277.096 709.272 241.755C662.798 123.258 528.947 64.8415 410.307 111.277C391.598 118.601 374.373 128.097 358.834 139.362" stroke="#00B2D9" stroke-opacity="0.2" stroke-width="18" stroke-linejoin="round"/>
<path d="M426.485 589.403C474.182 601.084 525.661 599.767 575.608 582.815C715.304 535.396 790.121 383.672 742.717 243.922C729.129 203.863 706.974 169.136 678.987 141.092M529.047 65.4133C488.335 59.3248 445.605 62.5893 403.942 76.7305C264.246 124.144 189.429 275.872 236.834 415.624C244.31 437.662 254.382 458.1 266.591 476.682" stroke="#866BF4" stroke-opacity="0.2" stroke-width="18" stroke-linejoin="round"/>
<path d="M194.56 266.35C182.902 320.542 186.041 378.583 206.787 434.395C264.819 590.492 438.545 670.037 594.829 612.064C639.627 595.445 678.128 569.332 708.896 536.856M789.539 365.246C795.106 319.116 790.048 271.009 772.742 224.454C714.717 68.3563 540.985 -11.1882 384.701 46.7853C360.056 55.9287 337.3 67.9495 316.711 82.3217" stroke="#00B2D9" stroke-opacity="0.2" stroke-width="18" stroke-linejoin="round"/>
<path d="M329.733 411.839V390.08H342.87V392.417H332.369V399.77H342.19V402.107H332.369V409.502H343.04V411.839H329.733ZM347.281 411.839V395.52H349.704V398.07H349.917C350.257 397.198 350.806 396.522 351.564 396.041C352.322 395.552 353.233 395.308 354.296 395.308C355.373 395.308 356.269 395.552 356.985 396.041C357.708 396.522 358.271 397.198 358.675 398.07H358.845C359.263 397.227 359.89 396.557 360.726 396.062C361.563 395.559 362.565 395.308 363.734 395.308C365.194 395.308 366.388 395.765 367.316 396.678C368.244 397.584 368.708 398.998 368.708 400.917V411.839H366.2V400.917C366.2 399.713 365.87 398.853 365.212 398.335C364.553 397.818 363.777 397.56 362.884 397.56C361.736 397.56 360.846 397.907 360.216 398.601C359.586 399.288 359.27 400.16 359.27 401.215V411.839H356.719V400.662C356.719 399.734 356.418 398.987 355.816 398.421C355.214 397.847 354.438 397.56 353.488 397.56C352.836 397.56 352.227 397.733 351.66 398.08C351.1 398.427 350.647 398.909 350.3 399.525C349.959 400.135 349.79 400.839 349.79 401.64V411.839H347.281ZM373.294 417.959V395.52H375.718V398.112H376.015C376.2 397.829 376.455 397.468 376.78 397.029C377.113 396.582 377.589 396.186 378.205 395.839C378.828 395.485 379.672 395.308 380.734 395.308C382.109 395.308 383.321 395.651 384.369 396.338C385.418 397.025 386.237 397.999 386.825 399.26C387.412 400.521 387.706 402.008 387.706 403.722C387.706 405.451 387.412 406.948 386.825 408.216C386.237 409.477 385.422 410.454 384.38 411.149C383.338 411.835 382.137 412.179 380.777 412.179C379.729 412.179 378.888 412.006 378.258 411.659C377.627 411.304 377.142 410.904 376.802 410.458C376.462 410.005 376.2 409.629 376.015 409.332H375.803V417.959H373.294ZM375.761 403.679C375.761 404.912 375.941 405.999 376.302 406.941C376.664 407.876 377.191 408.609 377.886 409.14C378.581 409.665 379.431 409.926 380.437 409.926C381.485 409.926 382.361 409.65 383.062 409.098C383.771 408.538 384.302 407.788 384.657 406.846C385.018 405.896 385.198 404.841 385.198 403.679C385.198 402.532 385.021 401.498 384.667 400.577C384.32 399.649 383.792 398.916 383.084 398.378C382.382 397.833 381.5 397.56 380.437 397.56C379.417 397.56 378.559 397.818 377.865 398.335C377.17 398.845 376.646 399.56 376.292 400.482C375.937 401.395 375.761 402.461 375.761 403.679ZM398.166 412.179C396.691 412.179 395.398 411.828 394.286 411.128C393.181 410.426 392.316 409.445 391.692 408.184C391.076 406.923 390.768 405.451 390.768 403.765C390.768 402.065 391.076 400.581 391.692 399.313C392.316 398.045 393.181 397.061 394.286 396.359C395.398 395.658 396.691 395.308 398.166 395.308C399.639 395.308 400.929 395.658 402.034 396.359C403.147 397.061 404.011 398.045 404.627 399.313C405.251 400.581 405.563 402.065 405.563 403.765C405.563 405.451 405.251 406.923 404.627 408.184C404.011 409.445 403.147 410.426 402.034 411.128C400.929 411.828 399.639 412.179 398.166 412.179ZM398.166 409.926C399.285 409.926 400.206 409.64 400.929 409.066C401.652 408.493 402.187 407.738 402.534 406.803C402.881 405.868 403.055 404.855 403.055 403.765C403.055 402.673 402.881 401.658 402.534 400.715C402.187 399.774 401.652 399.012 400.929 398.431C400.206 397.851 399.285 397.56 398.166 397.56C397.046 397.56 396.124 397.851 395.402 398.431C394.679 399.012 394.144 399.774 393.797 400.715C393.45 401.658 393.276 402.673 393.276 403.765C393.276 404.855 393.45 405.868 393.797 406.803C394.144 407.738 394.679 408.493 395.402 409.066C396.124 409.64 397.046 409.926 398.166 409.926ZM412.535 411.839L407.561 395.52H410.197L413.725 408.015H413.895L417.382 395.52H420.06L423.504 407.972H423.674L427.203 395.52H429.838L424.865 411.839H422.398L418.827 399.302H418.572L415.001 411.839H412.535ZM439.444 412.179C437.871 412.179 436.514 411.832 435.373 411.138C434.239 410.437 433.365 409.459 432.748 408.205C432.138 406.945 431.834 405.478 431.834 403.807C431.834 402.136 432.138 400.662 432.748 399.387C433.365 398.105 434.222 397.106 435.32 396.391C436.426 395.669 437.715 395.308 439.189 395.308C440.039 395.308 440.879 395.449 441.708 395.732C442.537 396.016 443.292 396.476 443.972 397.114C444.652 397.744 445.194 398.58 445.598 399.621C446.002 400.662 446.204 401.944 446.204 403.467V404.529H433.62V402.362H443.653C443.653 401.442 443.468 400.62 443.1 399.897C442.739 399.175 442.222 398.605 441.548 398.186C440.882 397.769 440.096 397.56 439.189 397.56C438.19 397.56 437.325 397.808 436.596 398.304C435.873 398.792 435.317 399.43 434.927 400.216C434.537 401.003 434.342 401.845 434.342 402.745V404.19C434.342 405.422 434.555 406.466 434.98 407.324C435.412 408.174 436.011 408.822 436.776 409.268C437.542 409.707 438.43 409.926 439.444 409.926C440.103 409.926 440.698 409.834 441.23 409.65C441.768 409.459 442.232 409.176 442.622 408.801C443.012 408.418 443.313 407.944 443.525 407.377L445.949 408.057C445.694 408.879 445.265 409.601 444.663 410.224C444.06 410.84 443.317 411.322 442.431 411.669C441.545 412.009 440.549 412.179 439.444 412.179ZM450.019 411.839V395.52H452.443V397.985H452.613C452.911 397.177 453.449 396.522 454.228 396.02C455.008 395.516 455.886 395.265 456.864 395.265C457.048 395.265 457.279 395.269 457.555 395.275C457.832 395.283 458.041 395.293 458.182 395.308V397.857C458.097 397.836 457.902 397.804 457.598 397.762C457.3 397.712 456.985 397.688 456.652 397.688C455.858 397.688 455.149 397.854 454.526 398.186C453.91 398.513 453.421 398.966 453.06 399.547C452.705 400.121 452.528 400.776 452.528 401.512V411.839H450.019ZM461.156 411.839V395.52H463.664V411.839H461.156ZM462.431 392.8C461.942 392.8 461.521 392.634 461.166 392.301C460.819 391.968 460.645 391.568 460.645 391.1C460.645 390.633 460.819 390.233 461.166 389.9C461.521 389.567 461.942 389.4 462.431 389.4C462.92 389.4 463.338 389.567 463.685 389.9C464.039 390.233 464.217 390.633 464.217 391.1C464.217 391.568 464.039 391.968 463.685 392.301C463.338 392.634 462.92 392.8 462.431 392.8ZM470.766 402.022V411.839H468.258V395.52H470.682V398.07H470.894C471.276 397.241 471.858 396.575 472.637 396.073C473.416 395.563 474.423 395.308 475.656 395.308C476.761 395.308 477.728 395.534 478.557 395.988C479.386 396.434 480.031 397.114 480.492 398.027C480.952 398.934 481.183 400.082 481.183 401.47V411.839H478.674V401.64C478.674 400.358 478.341 399.359 477.675 398.643C477.009 397.921 476.095 397.56 474.933 397.56C474.133 397.56 473.416 397.733 472.786 398.08C472.162 398.427 471.67 398.934 471.309 399.6C470.947 400.266 470.766 401.073 470.766 402.022ZM492.355 418.299C491.144 418.299 490.102 418.143 489.231 417.832C488.36 417.526 487.633 417.123 487.052 416.62C486.478 416.124 486.021 415.593 485.681 415.027L487.679 413.624C487.906 413.921 488.193 414.262 488.54 414.644C488.887 415.033 489.362 415.37 489.964 415.654C490.574 415.944 491.371 416.089 492.355 416.089C493.674 416.089 494.761 415.77 495.619 415.133C496.476 414.495 496.905 413.496 496.905 412.137V408.822H496.692C496.508 409.119 496.246 409.487 495.906 409.926C495.573 410.359 495.091 410.745 494.46 411.085C493.837 411.418 492.994 411.584 491.93 411.584C490.613 411.584 489.429 411.273 488.381 410.649C487.339 410.026 486.514 409.119 485.904 407.929C485.302 406.739 485.001 405.294 485.001 403.594C485.001 401.923 485.295 400.468 485.883 399.228C486.471 397.982 487.29 397.018 488.338 396.338C489.387 395.651 490.599 395.308 491.973 395.308C493.036 395.308 493.879 395.485 494.503 395.839C495.134 396.186 495.615 396.582 495.949 397.029C496.288 397.468 496.55 397.829 496.735 398.112H496.99V395.52H499.413V412.306C499.413 413.709 499.094 414.849 498.457 415.728C497.826 416.613 496.976 417.261 495.906 417.672C494.843 418.09 493.66 418.299 492.355 418.299ZM492.271 409.332C493.277 409.332 494.127 409.101 494.822 408.641C495.516 408.181 496.044 407.519 496.405 406.654C496.766 405.79 496.947 404.757 496.947 403.552C496.947 402.377 496.77 401.338 496.416 400.439C496.062 399.54 495.537 398.835 494.843 398.325C494.148 397.815 493.291 397.56 492.271 397.56C491.208 397.56 490.322 397.829 489.614 398.367C488.912 398.906 488.384 399.628 488.03 400.535C487.683 401.442 487.509 402.447 487.509 403.552C487.509 404.685 487.686 405.688 488.04 406.559C488.402 407.423 488.934 408.103 489.635 408.599C490.343 409.087 491.222 409.332 492.271 409.332ZM512.423 395.52H514.931V413.029C514.931 414.035 514.757 414.906 514.41 415.642C514.07 416.379 513.553 416.95 512.858 417.353C512.171 417.757 511.303 417.959 510.254 417.959C510.169 417.959 510.085 417.959 509.999 417.959C509.914 417.959 509.829 417.959 509.744 417.959V415.621C509.829 415.621 509.907 415.621 509.978 415.621C510.049 415.621 510.126 415.621 510.212 415.621C510.977 415.621 511.537 415.395 511.891 414.941C512.245 414.495 512.423 413.858 512.423 413.029V395.52ZM513.655 392.8C513.167 392.8 512.745 392.634 512.391 392.301C512.043 391.968 511.87 391.568 511.87 391.1C511.87 390.633 512.043 390.233 512.391 389.9C512.745 389.567 513.167 389.4 513.655 389.4C514.145 389.4 514.562 389.567 514.909 389.9C515.264 390.233 515.441 390.633 515.441 391.1C515.441 391.568 515.264 391.968 514.909 392.301C514.562 392.634 514.145 392.8 513.655 392.8ZM529.814 405.167V395.52H532.322V411.839H529.814V409.077H529.644C529.261 409.906 528.666 410.61 527.858 411.191C527.05 411.765 526.03 412.051 524.797 412.051C523.777 412.051 522.87 411.828 522.076 411.382C521.282 410.929 520.659 410.249 520.205 409.342C519.752 408.429 519.525 407.278 519.525 405.89V395.52H522.033V405.719C522.033 406.909 522.366 407.858 523.032 408.567C523.706 409.275 524.563 409.629 525.605 409.629C526.228 409.629 526.863 409.47 527.507 409.151C528.159 408.832 528.705 408.344 529.144 407.685C529.591 407.027 529.814 406.187 529.814 405.167ZM548.48 399.175L546.227 399.813C546.085 399.437 545.876 399.072 545.6 398.718C545.33 398.357 544.962 398.059 544.494 397.825C544.027 397.592 543.428 397.475 542.698 397.475C541.699 397.475 540.866 397.705 540.2 398.166C539.542 398.619 539.212 399.196 539.212 399.897C539.212 400.521 539.438 401.013 539.892 401.374C540.345 401.736 541.054 402.036 542.018 402.277L544.441 402.872C545.901 403.226 546.988 403.768 547.704 404.498C548.42 405.22 548.777 406.151 548.777 407.292C548.777 408.227 548.508 409.063 547.97 409.799C547.438 410.536 546.694 411.116 545.738 411.541C544.781 411.967 543.669 412.179 542.401 412.179C540.735 412.179 539.357 411.818 538.266 411.095C537.175 410.373 536.484 409.318 536.193 407.929L538.574 407.334C538.801 408.213 539.23 408.871 539.86 409.311C540.498 409.75 541.331 409.969 542.358 409.969C543.527 409.969 544.455 409.721 545.142 409.226C545.837 408.723 546.184 408.121 546.184 407.419C546.184 406.853 545.986 406.378 545.589 405.996C545.192 405.606 544.583 405.316 543.761 405.125L541.04 404.487C539.545 404.133 538.446 403.584 537.745 402.84C537.051 402.089 536.704 401.151 536.704 400.025C536.704 399.104 536.962 398.29 537.48 397.581C538.004 396.873 538.716 396.317 539.616 395.913C540.523 395.51 541.55 395.308 542.698 395.308C544.313 395.308 545.582 395.661 546.503 396.37C547.431 397.078 548.09 398.013 548.48 399.175ZM559.653 395.52V397.645H551.193V395.52H559.653ZM553.659 391.61H556.167V407.164C556.167 407.873 556.27 408.404 556.475 408.758C556.688 409.105 556.957 409.339 557.283 409.459C557.616 409.573 557.967 409.629 558.336 409.629C558.612 409.629 558.838 409.615 559.016 409.587C559.193 409.551 559.334 409.523 559.441 409.502L559.951 411.754C559.781 411.818 559.543 411.882 559.239 411.945C558.934 412.016 558.548 412.051 558.08 412.051C557.372 412.051 556.677 411.9 555.997 411.595C555.324 411.29 554.764 410.826 554.317 410.203C553.878 409.579 553.659 408.793 553.659 407.844V391.61ZM563.427 411.839V395.52H565.935V411.839H563.427ZM564.702 392.8C564.213 392.8 563.791 392.634 563.437 392.301C563.09 391.968 562.916 391.568 562.916 391.1C562.916 390.633 563.09 390.233 563.437 389.9C563.791 389.567 564.213 389.4 564.702 389.4C565.191 389.4 565.609 389.567 565.956 389.9C566.31 390.233 566.488 390.633 566.488 391.1C566.488 391.568 566.31 391.968 565.956 392.301C565.609 392.634 565.191 392.8 564.702 392.8ZM577.162 412.179C575.631 412.179 574.313 411.818 573.207 411.095C572.102 410.373 571.252 409.377 570.656 408.11C570.061 406.842 569.764 405.394 569.764 403.765C569.764 402.107 570.068 400.644 570.678 399.376C571.295 398.102 572.151 397.106 573.25 396.391C574.356 395.669 575.645 395.308 577.119 395.308C578.267 395.308 579.301 395.52 580.222 395.945C581.143 396.37 581.898 396.965 582.486 397.73C583.074 398.495 583.439 399.387 583.581 400.407H581.073C580.881 399.664 580.456 399.005 579.797 398.431C579.145 397.851 578.267 397.56 577.162 397.56C576.184 397.56 575.326 397.815 574.589 398.325C573.86 398.827 573.289 399.54 572.878 400.46C572.474 401.374 572.272 402.447 572.272 403.679C572.272 404.941 572.471 406.039 572.867 406.974C573.271 407.908 573.838 408.634 574.568 409.151C575.304 409.668 576.169 409.926 577.162 409.926C577.813 409.926 578.404 409.813 578.936 409.587C579.468 409.36 579.917 409.034 580.286 408.609C580.654 408.184 580.916 407.674 581.073 407.08H583.581C583.439 408.042 583.088 408.91 582.529 409.683C581.976 410.447 581.242 411.057 580.328 411.51C579.421 411.956 578.365 412.179 577.162 412.179ZM594.092 412.179C592.519 412.179 591.163 411.832 590.022 411.138C588.888 410.437 588.013 409.459 587.396 408.205C586.787 406.945 586.482 405.478 586.482 403.807C586.482 402.136 586.787 400.662 587.396 399.387C588.013 398.105 588.87 397.106 589.969 396.391C591.074 395.669 592.364 395.308 593.837 395.308C594.688 395.308 595.527 395.449 596.356 395.732C597.186 396.016 597.94 396.476 598.62 397.114C599.301 397.744 599.843 398.58 600.247 399.621C600.651 400.662 600.852 401.944 600.852 403.467V404.529H588.268V402.362H598.301C598.301 401.442 598.117 400.62 597.749 399.897C597.388 399.175 596.87 398.605 596.197 398.186C595.531 397.769 594.745 397.56 593.837 397.56C592.838 397.56 591.974 397.808 591.244 398.304C590.522 398.792 589.965 399.43 589.575 400.216C589.186 401.003 588.991 401.845 588.991 402.745V404.19C588.991 405.422 589.203 406.466 589.628 407.324C590.061 408.174 590.659 408.822 591.425 409.268C592.19 409.707 593.079 409.926 594.092 409.926C594.751 409.926 595.346 409.834 595.878 409.65C596.416 409.459 596.881 409.176 597.271 408.801C597.66 408.418 597.961 407.944 598.174 407.377L600.598 408.057C600.342 408.879 599.914 409.601 599.311 410.224C598.709 410.84 597.965 411.322 597.079 411.669C596.193 412.009 595.198 412.179 594.092 412.179ZM616.784 411.839L611.81 395.52H614.446L617.975 408.015H618.145L621.631 395.52H624.31L627.753 407.972H627.923L631.452 395.52H634.088L629.113 411.839H626.648L623.076 399.302H622.821L619.251 411.839H616.784ZM637.404 411.839V395.52H639.912V411.839H637.404ZM638.679 392.8C638.19 392.8 637.769 392.634 637.415 392.301C637.067 391.968 636.894 391.568 636.894 391.1C636.894 390.633 637.067 390.233 637.415 389.9C637.769 389.567 638.19 389.4 638.679 389.4C639.168 389.4 639.587 389.567 639.934 389.9C640.288 390.233 640.465 390.633 640.465 391.1C640.465 391.568 640.288 391.968 639.934 392.301C639.587 392.634 639.168 392.8 638.679 392.8ZM651.607 395.52V397.645H643.146V395.52H651.607ZM645.612 391.61H648.12V407.164C648.12 407.873 648.223 408.404 648.429 408.758C648.641 409.105 648.91 409.339 649.236 409.459C649.569 409.573 649.92 409.629 650.288 409.629C650.565 409.629 650.792 409.615 650.968 409.587C651.146 409.551 651.288 409.523 651.394 409.502L651.904 411.754C651.734 411.818 651.497 411.882 651.192 411.945C650.888 412.016 650.501 412.051 650.033 412.051C649.324 412.051 648.63 411.9 647.95 411.595C647.277 411.29 646.718 410.826 646.271 410.203C645.832 409.579 645.612 408.793 645.612 407.844V391.61ZM658.238 402.022V411.839H655.73V390.08H658.238V398.07H658.451C658.834 397.227 659.408 396.557 660.173 396.062C660.946 395.559 661.973 395.308 663.255 395.308C664.368 395.308 665.342 395.53 666.178 395.977C667.015 396.416 667.663 397.092 668.123 398.006C668.591 398.913 668.825 400.068 668.825 401.47V411.839H666.316V401.64C666.316 400.344 665.98 399.341 665.306 398.633C664.64 397.918 663.716 397.56 662.533 397.56C661.71 397.56 660.974 397.733 660.321 398.08C659.677 398.427 659.167 398.934 658.791 399.6C658.423 400.266 658.238 401.073 658.238 402.022ZM347.816 425.982V447.741H345.308V425.982H347.816ZM352.411 447.741V431.422H354.919V447.741H352.411ZM353.686 428.702C353.197 428.702 352.776 428.536 352.421 428.203C352.074 427.87 351.9 427.47 351.9 427.002C351.9 426.535 352.074 426.135 352.421 425.802C352.776 425.469 353.197 425.302 353.686 425.302C354.175 425.302 354.593 425.469 354.941 425.802C355.294 426.135 355.472 426.535 355.472 427.002C355.472 427.47 355.294 427.87 354.941 428.203C354.593 428.536 354.175 428.702 353.686 428.702ZM366.783 431.422V433.547H357.983V431.422H366.783ZM360.618 447.741V429.17C360.618 428.235 360.838 427.456 361.277 426.833C361.717 426.209 362.288 425.741 362.989 425.43C363.691 425.118 364.431 424.963 365.21 424.963C365.827 424.963 366.33 425.012 366.719 425.111C367.109 425.21 367.4 425.302 367.591 425.387L366.868 427.555C366.74 427.512 366.563 427.459 366.336 427.396C366.117 427.331 365.827 427.3 365.465 427.3C364.636 427.3 364.038 427.509 363.669 427.927C363.307 428.344 363.127 428.957 363.127 429.765V447.741H360.618ZM376.471 448.081C374.898 448.081 373.541 447.734 372.4 447.04C371.267 446.339 370.392 445.361 369.775 444.107C369.166 442.847 368.861 441.38 368.861 439.709C368.861 438.038 369.166 436.564 369.775 435.289C370.392 434.007 371.249 433.008 372.347 432.293C373.452 431.571 374.742 431.21 376.216 431.21C377.066 431.21 377.906 431.351 378.735 431.634C379.564 431.918 380.319 432.378 380.999 433.016C381.679 433.646 382.221 434.482 382.625 435.523C383.029 436.564 383.231 437.846 383.231 439.369V440.431H370.646V438.264H380.68C380.68 437.344 380.496 436.522 380.127 435.799C379.766 435.077 379.249 434.507 378.576 434.088C377.91 433.671 377.123 433.462 376.216 433.462C375.217 433.462 374.352 433.71 373.623 434.206C372.9 434.694 372.343 435.332 371.954 436.118C371.564 436.905 371.369 437.747 371.369 438.647V440.092C371.369 441.324 371.582 442.368 372.007 443.225C372.439 444.076 373.038 444.724 373.803 445.17C374.569 445.609 375.458 445.828 376.471 445.828C377.13 445.828 377.726 445.736 378.257 445.552C378.796 445.361 379.259 445.078 379.649 444.703C380.038 444.32 380.34 443.846 380.552 443.279L382.976 443.959C382.721 444.781 382.292 445.503 381.69 446.126C381.087 446.742 380.344 447.224 379.458 447.571C378.572 447.911 377.577 448.081 376.471 448.081ZM389.555 425.982V447.741H387.046V425.982H389.555ZM400.781 448.081C399.307 448.081 398.014 447.73 396.902 447.03C395.797 446.328 394.932 445.347 394.308 444.086C393.692 442.825 393.383 441.353 393.383 439.667C393.383 437.967 393.692 436.483 394.308 435.215C394.932 433.947 395.797 432.963 396.902 432.261C398.014 431.56 399.307 431.21 400.781 431.21C402.255 431.21 403.545 431.56 404.65 432.261C405.763 432.963 406.627 433.947 407.243 435.215C407.867 436.483 408.179 437.967 408.179 439.667C408.179 441.353 407.867 442.825 407.243 444.086C406.627 445.347 405.763 446.328 404.65 447.03C403.545 447.73 402.255 448.081 400.781 448.081ZM400.781 445.828C401.901 445.828 402.822 445.542 403.545 444.968C404.268 444.395 404.802 443.64 405.15 442.705C405.497 441.77 405.67 440.757 405.67 439.667C405.67 438.575 405.497 437.56 405.15 436.617C404.802 435.676 404.268 434.914 403.545 434.333C402.822 433.753 401.901 433.462 400.781 433.462C399.662 433.462 398.741 433.753 398.018 434.333C397.295 434.914 396.76 435.676 396.413 436.617C396.066 437.56 395.892 438.575 395.892 439.667C395.892 440.757 396.066 441.77 396.413 442.705C396.76 443.64 397.295 444.395 398.018 444.968C398.741 445.542 399.662 445.828 400.781 445.828ZM418.597 454.201C417.386 454.201 416.344 454.045 415.473 453.734C414.601 453.428 413.875 453.025 413.294 452.522C412.72 452.026 412.263 451.495 411.923 450.929L413.921 449.526C414.147 449.823 414.435 450.164 414.782 450.546C415.129 450.935 415.604 451.272 416.206 451.556C416.816 451.846 417.613 451.991 418.597 451.991C419.916 451.991 421.003 451.672 421.86 451.035C422.718 450.397 423.147 449.398 423.147 448.039V444.724H422.934C422.749 445.021 422.487 445.389 422.148 445.828C421.814 446.261 421.333 446.647 420.702 446.987C420.078 447.32 419.235 447.486 418.172 447.486C416.855 447.486 415.671 447.175 414.623 446.551C413.581 445.928 412.755 445.021 412.146 443.831C411.544 442.641 411.243 441.196 411.243 439.496C411.243 437.825 411.537 436.37 412.125 435.13C412.713 433.884 413.531 432.92 414.58 432.24C415.628 431.553 416.84 431.21 418.215 431.21C419.277 431.21 420.121 431.387 420.745 431.741C421.375 432.088 421.857 432.484 422.19 432.931C422.53 433.37 422.792 433.731 422.976 434.014H423.231V431.422H425.655V448.208C425.655 449.611 425.336 450.751 424.699 451.63C424.068 452.515 423.217 453.163 422.148 453.574C421.084 453.992 419.901 454.201 418.597 454.201ZM418.513 445.234C419.518 445.234 420.369 445.003 421.064 444.543C421.758 444.083 422.285 443.421 422.647 442.556C423.008 441.692 423.189 440.659 423.189 439.454C423.189 438.279 423.012 437.24 422.657 436.341C422.303 435.442 421.779 434.737 421.084 434.227C420.39 433.717 419.533 433.462 418.513 433.462C417.449 433.462 416.564 433.731 415.855 434.269C415.154 434.808 414.626 435.53 414.272 436.437C413.924 437.344 413.751 438.349 413.751 439.454C413.751 440.587 413.928 441.59 414.282 442.461C414.644 443.325 415.175 444.005 415.877 444.501C416.585 444.989 417.464 445.234 418.513 445.234ZM436.836 454.201C435.624 454.201 434.583 454.045 433.711 453.734C432.84 453.428 432.114 453.025 431.532 452.522C430.958 452.026 430.501 451.495 430.161 450.929L432.159 449.526C432.386 449.823 432.673 450.164 433.021 450.546C433.368 450.935 433.842 451.272 434.444 451.556C435.054 451.846 435.851 451.991 436.836 451.991C438.154 451.991 439.242 451.672 440.099 451.035C440.957 450.397 441.385 449.398 441.385 448.039V444.724H441.173C440.988 445.021 440.726 445.389 440.386 445.828C440.053 446.261 439.572 446.647 438.941 446.987C438.317 447.32 437.473 447.486 436.411 447.486C435.093 447.486 433.909 447.175 432.861 446.551C431.82 445.928 430.994 445.021 430.384 443.831C429.782 442.641 429.481 441.196 429.481 439.496C429.481 437.825 429.775 436.37 430.364 435.13C430.952 433.884 431.769 432.92 432.819 432.24C433.867 431.553 435.079 431.21 436.454 431.21C437.516 431.21 438.359 431.387 438.983 431.741C439.613 432.088 440.095 432.484 440.428 432.931C440.769 433.37 441.031 433.731 441.215 434.014H441.47V431.422H443.893V448.208C443.893 449.611 443.575 450.751 442.937 451.63C442.306 452.515 441.456 453.163 440.386 453.574C439.323 453.992 438.14 454.201 436.836 454.201ZM436.751 445.234C437.757 445.234 438.608 445.003 439.302 444.543C439.997 444.083 440.524 443.421 440.885 442.556C441.247 441.692 441.428 440.659 441.428 439.454C441.428 438.279 441.251 437.24 440.896 436.341C440.542 435.442 440.017 434.737 439.323 434.227C438.629 433.717 437.771 433.462 436.751 433.462C435.688 433.462 434.802 433.731 434.094 434.269C433.392 434.808 432.864 435.53 432.51 436.437C432.163 437.344 431.989 438.349 431.989 439.454C431.989 440.587 432.167 441.59 432.521 442.461C432.882 443.325 433.413 444.005 434.115 444.501C434.824 444.989 435.702 445.234 436.751 445.234ZM448.485 447.741V431.422H450.994V447.741H448.485ZM449.76 428.702C449.272 428.702 448.85 428.536 448.496 428.203C448.149 427.87 447.975 427.47 447.975 427.002C447.975 426.535 448.149 426.135 448.496 425.802C448.85 425.469 449.272 425.302 449.76 425.302C450.249 425.302 450.667 425.469 451.015 425.802C451.369 426.135 451.546 426.535 451.546 427.002C451.546 427.47 451.369 427.87 451.015 428.203C450.667 428.536 450.249 428.702 449.76 428.702ZM458.096 437.924V447.741H455.588V431.422H458.011V433.972H458.223C458.606 433.143 459.187 432.477 459.967 431.975C460.746 431.465 461.752 431.21 462.985 431.21C464.09 431.21 465.058 431.436 465.887 431.889C466.716 432.336 467.36 433.016 467.821 433.929C468.282 434.836 468.512 435.984 468.512 437.372V447.741H466.004V437.542C466.004 436.26 465.671 435.261 465.005 434.545C464.339 433.823 463.424 433.462 462.262 433.462C461.462 433.462 460.746 433.635 460.116 433.982C459.491 434.329 458.999 434.836 458.638 435.502C458.276 436.168 458.096 436.975 458.096 437.924ZM479.685 454.201C478.474 454.201 477.432 454.045 476.561 453.734C475.689 453.428 474.962 453.025 474.382 452.522C473.808 452.026 473.351 451.495 473.01 450.929L475.009 449.526C475.235 449.823 475.522 450.164 475.869 450.546C476.216 450.935 476.692 451.272 477.294 451.556C477.903 451.846 478.701 451.991 479.685 451.991C481.003 451.991 482.091 451.672 482.948 451.035C483.805 450.397 484.234 449.398 484.234 448.039V444.724H484.021C483.837 445.021 483.575 445.389 483.235 445.828C482.902 446.261 482.42 446.647 481.789 446.987C481.166 447.32 480.323 447.486 479.26 447.486C477.942 447.486 476.759 447.175 475.71 446.551C474.668 445.928 473.843 445.021 473.234 443.831C472.632 442.641 472.33 441.196 472.33 439.496C472.33 437.825 472.624 436.37 473.212 435.13C473.8 433.884 474.619 432.92 475.668 432.24C476.716 431.553 477.928 431.21 479.302 431.21C480.365 431.21 481.209 431.387 481.832 431.741C482.463 432.088 482.945 432.484 483.278 432.931C483.618 433.37 483.88 433.731 484.064 434.014H484.319V431.422H486.743V448.208C486.743 449.611 486.424 450.751 485.786 451.63C485.155 452.515 484.305 453.163 483.235 453.574C482.172 453.992 480.989 454.201 479.685 454.201ZM479.6 445.234C480.606 445.234 481.456 445.003 482.151 444.543C482.845 444.083 483.373 443.421 483.735 442.556C484.096 441.692 484.277 440.659 484.277 439.454C484.277 438.279 484.099 437.24 483.745 436.341C483.391 435.442 482.867 434.737 482.172 434.227C481.478 433.717 480.621 433.462 479.6 433.462C478.537 433.462 477.652 433.731 476.943 434.269C476.242 434.808 475.714 435.53 475.36 436.437C475.012 437.344 474.839 438.349 474.839 439.454C474.839 440.587 475.015 441.59 475.37 442.461C475.732 443.325 476.263 444.005 476.964 444.501C477.672 444.989 478.552 445.234 479.6 445.234ZM506.852 431.422V433.547H498.392V431.422H506.852ZM500.857 427.512H503.366V443.066C503.366 443.775 503.468 444.306 503.674 444.66C503.887 445.007 504.155 445.241 504.482 445.361C504.815 445.475 505.166 445.531 505.534 445.531C505.811 445.531 506.037 445.517 506.214 445.489C506.391 445.453 506.533 445.425 506.64 445.404L507.149 447.656C506.979 447.72 506.742 447.784 506.438 447.847C506.132 447.918 505.746 447.953 505.279 447.953C504.57 447.953 503.876 447.802 503.195 447.497C502.523 447.192 501.963 446.728 501.516 446.105C501.077 445.481 500.857 444.695 500.857 443.746V427.512ZM517.295 448.081C515.721 448.081 514.365 447.734 513.223 447.04C512.09 446.339 511.215 445.361 510.599 444.107C509.989 442.847 509.684 441.38 509.684 439.709C509.684 438.038 509.989 436.564 510.599 435.289C511.215 434.007 512.072 433.008 513.17 432.293C514.276 431.571 515.565 431.21 517.04 431.21C517.89 431.21 518.729 431.351 519.558 431.634C520.387 431.918 521.142 432.378 521.822 433.016C522.502 433.646 523.044 434.482 523.448 435.523C523.852 436.564 524.054 437.846 524.054 439.369V440.431H511.47V438.264H521.504C521.504 437.344 521.319 436.522 520.951 435.799C520.589 435.077 520.072 434.507 519.399 434.088C518.733 433.671 517.946 433.462 517.04 433.462C516.04 433.462 515.176 433.71 514.446 434.206C513.723 434.694 513.167 435.332 512.777 436.118C512.388 436.905 512.192 437.747 512.192 438.647V440.092C512.192 441.324 512.406 442.368 512.831 443.225C513.262 444.076 513.862 444.724 514.626 445.17C515.392 445.609 516.281 445.828 517.295 445.828C517.953 445.828 518.549 445.736 519.08 445.552C519.619 445.361 520.083 445.078 520.473 444.703C520.862 444.32 521.163 443.846 521.376 443.279L523.799 443.959C523.544 444.781 523.115 445.503 522.513 446.126C521.911 446.742 521.167 447.224 520.281 447.571C519.395 447.911 518.4 448.081 517.295 448.081ZM534.502 448.081C532.971 448.081 531.654 447.72 530.548 446.997C529.443 446.275 528.593 445.279 527.998 444.012C527.402 442.744 527.104 441.296 527.104 439.667C527.104 438.009 527.41 436.546 528.019 435.278C528.635 434.004 529.493 433.008 530.591 432.293C531.696 431.571 532.986 431.21 534.46 431.21C535.607 431.21 536.642 431.422 537.563 431.847C538.484 432.272 539.239 432.867 539.827 433.632C540.415 434.397 540.78 435.289 540.921 436.309H538.413C538.222 435.566 537.797 434.907 537.138 434.333C536.486 433.753 535.607 433.462 534.502 433.462C533.524 433.462 532.667 433.717 531.93 434.227C531.2 434.729 530.63 435.442 530.218 436.362C529.815 437.276 529.613 438.349 529.613 439.581C529.613 440.843 529.811 441.941 530.208 442.875C530.612 443.81 531.178 444.536 531.909 445.053C532.646 445.57 533.51 445.828 534.502 445.828C535.154 445.828 535.746 445.715 536.277 445.489C536.808 445.262 537.258 444.936 537.627 444.511C537.995 444.086 538.258 443.576 538.413 442.982H540.921C540.78 443.944 540.429 444.812 539.869 445.585C539.316 446.349 538.583 446.959 537.67 447.412C536.763 447.858 535.707 448.081 534.502 448.081ZM547.097 437.924V447.741H544.589V425.982H547.097V433.972H547.309C547.692 433.129 548.266 432.459 549.031 431.964C549.804 431.461 550.831 431.21 552.114 431.21C553.226 431.21 554.201 431.432 555.036 431.879C555.872 432.318 556.521 432.994 556.981 433.908C557.449 434.815 557.683 435.97 557.683 437.372V447.741H555.175V437.542C555.175 436.246 554.838 435.243 554.165 434.535C553.499 433.82 552.574 433.462 551.391 433.462C550.569 433.462 549.832 433.635 549.18 433.982C548.536 434.329 548.025 434.836 547.65 435.502C547.281 436.168 547.097 436.975 547.097 437.924ZM564.78 437.924V447.741H562.272V431.422H564.695V433.972H564.907C565.291 433.143 565.871 432.477 566.651 431.975C567.431 431.465 568.436 431.21 569.669 431.21C570.774 431.21 571.742 431.436 572.571 431.889C573.4 432.336 574.045 433.016 574.505 433.929C574.966 434.836 575.196 435.984 575.196 437.372V447.741H572.688V437.542C572.688 436.26 572.355 435.261 571.689 434.545C571.023 433.823 570.109 433.462 568.946 433.462C568.146 433.462 567.431 433.635 566.8 433.982C566.176 434.329 565.683 434.836 565.322 435.502C564.961 436.168 564.78 436.975 564.78 437.924ZM586.412 448.081C584.938 448.081 583.645 447.73 582.532 447.03C581.427 446.328 580.563 445.347 579.939 444.086C579.322 442.825 579.014 441.353 579.014 439.667C579.014 437.967 579.322 436.483 579.939 435.215C580.563 433.947 581.427 432.963 582.532 432.261C583.645 431.56 584.938 431.21 586.412 431.21C587.885 431.21 589.175 431.56 590.281 432.261C591.393 432.963 592.258 433.947 592.874 435.215C593.497 436.483 593.809 437.967 593.809 439.667C593.809 441.353 593.497 442.825 592.874 444.086C592.258 445.347 591.393 446.328 590.281 447.03C589.175 447.73 587.885 448.081 586.412 448.081ZM586.412 445.828C587.532 445.828 588.453 445.542 589.175 444.968C589.898 444.395 590.433 443.64 590.78 442.705C591.128 441.77 591.301 440.757 591.301 439.667C591.301 438.575 591.128 437.56 590.78 436.617C590.433 435.676 589.898 434.914 589.175 434.333C588.453 433.753 587.532 433.462 586.412 433.462C585.293 433.462 584.372 433.753 583.649 434.333C582.926 434.914 582.391 435.676 582.044 436.617C581.697 437.56 581.523 438.575 581.523 439.667C581.523 440.757 581.697 441.77 582.044 442.705C582.391 443.64 582.926 444.395 583.649 444.968C584.372 445.542 585.293 445.828 586.412 445.828ZM600.147 425.982V447.741H597.638V425.982H600.147ZM611.373 448.081C609.899 448.081 608.606 447.73 607.494 447.03C606.388 446.328 605.524 445.347 604.901 444.086C604.284 442.825 603.976 441.353 603.976 439.667C603.976 437.967 604.284 436.483 604.901 435.215C605.524 433.947 606.388 432.963 607.494 432.261C608.606 431.56 609.899 431.21 611.373 431.21C612.847 431.21 614.136 431.56 615.242 432.261C616.354 432.963 617.219 433.947 617.836 435.215C618.459 436.483 618.771 437.967 618.771 439.667C618.771 441.353 618.459 442.825 617.836 444.086C617.219 445.347 616.354 446.328 615.242 447.03C614.136 447.73 612.847 448.081 611.373 448.081ZM611.373 445.828C612.492 445.828 613.414 445.542 614.136 444.968C614.859 444.395 615.394 443.64 615.741 442.705C616.089 441.77 616.262 440.757 616.262 439.667C616.262 438.575 616.089 437.56 615.741 436.617C615.394 435.676 614.859 434.914 614.136 434.333C613.414 433.753 612.492 433.462 611.373 433.462C610.254 433.462 609.333 433.753 608.61 434.333C607.887 434.914 607.352 435.676 607.005 436.617C606.658 437.56 606.484 438.575 606.484 439.667C606.484 440.757 606.658 441.77 607.005 442.705C607.352 443.64 607.887 444.395 608.61 444.968C609.333 445.542 610.254 445.828 611.373 445.828ZM629.19 454.201C627.978 454.201 626.936 454.045 626.064 453.734C625.193 453.428 624.467 453.025 623.885 452.522C623.311 452.026 622.855 451.495 622.515 450.929L624.513 449.526C624.74 449.823 625.026 450.164 625.374 450.546C625.721 450.935 626.196 451.272 626.798 451.556C627.407 451.846 628.204 451.991 629.19 451.991C630.507 451.991 631.595 451.672 632.452 451.035C633.31 450.397 633.738 449.398 633.738 448.039V444.724H633.526C633.342 445.021 633.079 445.389 632.739 445.828C632.406 446.261 631.925 446.647 631.294 446.987C630.67 447.32 629.827 447.486 628.764 447.486C627.446 447.486 626.263 447.175 625.214 446.551C624.173 445.928 623.347 445.021 622.738 443.831C622.135 442.641 621.834 441.196 621.834 439.496C621.834 437.825 622.128 436.37 622.717 435.13C623.305 433.884 624.123 432.92 625.172 432.24C626.221 431.553 627.432 431.21 628.807 431.21C629.87 431.21 630.713 431.387 631.336 431.741C631.967 432.088 632.449 432.484 632.782 432.931C633.122 433.37 633.384 433.731 633.568 434.014H633.824V431.422H636.246V448.208C636.246 449.611 635.928 450.751 635.29 451.63C634.659 452.515 633.809 453.163 632.739 453.574C631.676 453.992 630.493 454.201 629.19 454.201ZM629.104 445.234C630.111 445.234 630.961 445.003 631.655 444.543C632.35 444.083 632.878 443.421 633.239 442.556C633.6 441.692 633.781 440.659 633.781 439.454C633.781 438.279 633.604 437.24 633.25 436.341C632.895 435.442 632.371 434.737 631.676 434.227C630.982 433.717 630.125 433.462 629.104 433.462C628.041 433.462 627.156 433.731 626.447 434.269C625.746 434.808 625.218 435.53 624.863 436.437C624.516 437.344 624.343 438.349 624.343 439.454C624.343 440.587 624.52 441.59 624.874 442.461C625.235 443.325 625.767 444.005 626.468 444.501C627.177 444.989 628.055 445.234 629.104 445.234ZM642.454 453.861C642.029 453.861 641.65 453.826 641.317 453.755C640.984 453.691 640.753 453.627 640.626 453.563L641.264 451.354C641.873 451.509 642.411 451.566 642.879 451.523C643.347 451.481 643.761 451.272 644.123 450.897C644.491 450.529 644.827 449.929 645.132 449.101L645.6 447.826L639.563 431.422H642.284L646.79 444.426H646.961L651.467 431.422H654.188L647.258 450.121C646.946 450.964 646.56 451.662 646.099 452.214C645.639 452.773 645.104 453.188 644.494 453.457C643.892 453.726 643.212 453.861 642.454 453.861Z" fill="#E7E9F9"/>
</svg>
